<?xml version="1.0" encoding="UTF-8" standalone="no"?>
<!-- Created with Inkscape (http://www.inkscape.org/) -->

<svg
   xmlns:dc="http://purl.org/dc/elements/1.1/"
   xmlns:cc="http://creativecommons.org/ns#"
   xmlns:rdf="http://www.w3.org/1999/02/22-rdf-syntax-ns#"
   xmlns:svg="http://www.w3.org/2000/svg"
   xmlns="http://www.w3.org/2000/svg"
   xmlns:sodipodi="http://sodipodi.sourceforge.net/DTD/sodipodi-0.dtd"
   xmlns:inkscape="http://www.inkscape.org/namespaces/inkscape"
   width="210mm"
   height="297mm"
   viewBox="0 0 210 297"
   version="1.1"
   id="svg8"
   inkscape:version="0.91+devel r"
   sodipodi:docname="supercars-championship.svg">
  <defs
     id="defs2" />
  <sodipodi:namedview
     id="base"
     pagecolor="#ffffff"
     bordercolor="#666666"
     borderopacity="1.0"
     inkscape:pageopacity="0.0"
     inkscape:pageshadow="2"
     inkscape:zoom="0.65477694"
     inkscape:cx="511.31686"
     inkscape:cy="469.09105"
     inkscape:document-units="mm"
     inkscape:current-layer="layer1"
     showgrid="false"
     showguides="true"
     inkscape:guide-bbox="true"
     inkscape:snap-smooth-nodes="true"
     inkscape:snap-midpoints="true"
     inkscape:window-width="1600"
     inkscape:window-height="876"
     inkscape:window-x="0"
     inkscape:window-y="24"
     inkscape:window-maximized="1">
    <sodipodi:guide
       position="-6.2205835,-65.665632"
       orientation="0,1"
       id="guide11459" />
    <sodipodi:guide
       position="-43.247561,-78.872222"
       orientation="0,1"
       id="guide11461" />
    <sodipodi:guide
       position="-24.456441,-74.482152"
       orientation="0,1"
       id="guide11465" />
  </sodipodi:namedview>
  <metadata
     id="metadata5">
    <rdf:RDF>
      <cc:Work
         rdf:about="">
        <dc:format>image/svg+xml</dc:format>
        <dc:type
           rdf:resource="http://purl.org/dc/dcmitype/StillImage" />
        <dc:title></dc:title>
      </cc:Work>
    </rdf:RDF>
  </metadata>
  <g
     inkscape:label="Ebene 1"
     inkscape:groupmode="layer"
     id="layer1">
    <path
       inkscape:connector-curvature="0"
       id="path11430"
       style="font-style:normal;font-variant:normal;font-weight:bold;font-stretch:expanded;font-size:55.36935425px;line-height:125%;font-family:'Eurostile breit';-inkscape-font-specification:'Eurostile breit, Bold Expanded';font-variant-ligatures:normal;font-variant-caps:normal;font-variant-numeric:normal;font-feature-settings:normal;text-align:start;letter-spacing:-3.96875px;word-spacing:0px;writing-mode:lr-tb;text-anchor:start;fill:#ff2000;fill-opacity:1;stroke:none;stroke-width:1.38568938px;stroke-linecap:butt;stroke-linejoin:miter;stroke-opacity:1"
       d="m 40.903618,147.79953 13.218686,-0.0249 -0.196012,0.67215 c -0.406547,1.3941 -0.280283,2.34008 0.378784,2.83796 0.663906,0.48129 2.280712,0.72193 4.850418,0.72193 H 75.95666 c 1.64775,0 2.892467,-0.23233 3.734164,-0.69704 0.846527,-0.48128 1.42951,-1.26961 1.748932,-2.36495 0.324265,-1.11195 -0.210592,-0.69044 -0.894114,-1.17173 -0.663902,-0.4813 -2.618278,0.23383 -5.257262,0.0678 l -21.068939,0.20618 c -9.178829,-1.23796 -11.101309,-7.86353 -9.389072,-13.91453 1.639253,-5.73381 4.996004,-9.60178 11.264109,-10.87884 2.185521,-0.4315 5.602787,-0.64725 10.251796,-0.64725 h 20.42033 c 8.464892,0.27844 13.565026,2.08849 11.374085,9.93284 -0.06776,0.23235 -0.150146,0.48128 -0.247209,0.74683 -0.07743,0.26554 -0.232698,0.69704 -0.465779,1.29451 H 84.539939 l 0.04355,-0.14936 c 0.358144,-1.22812 0.254048,-2.14922 -0.31229,-2.76328 -0.546752,-0.61396 -1.555717,-0.92099 -3.026923,-0.92099 H 65.82605 c -2.569705,0 -4.329412,0.21575 -5.279123,0.64726 -0.949712,0.43151 -1.581861,1.18664 -1.896442,2.26538 -0.309749,1.06217 0.05104,1.10302 0.656101,1.58431 0.609898,0.46469 2.137141,-0.0638 4.099254,0.069 l 22.314414,-1.04651 c 9.194715,1.34071 10.994232,9.03109 9.321853,14.95223 -3.636526,11.48247 -12.579699,11.33869 -21.818172,11.35181 H 55.392926 c -9.07016,0.24243 -17.890289,-1.34661 -15.522499,-9.83326 0.06292,-0.21574 0.176768,-0.57257 0.341592,-1.07045 0.18927,-0.51449 0.419803,-1.13685 0.691598,-1.86708 z"
       sodipodi:nodetypes="ccscsscscccccscccccscsscscccccccccc" />
    <rect
       style="color:#000000;clip-rule:nonzero;display:inline;overflow:visible;visibility:visible;opacity:1;color-interpolation:sRGB;color-interpolation-filters:linearRGB;fill:#0080e0;fill-opacity:1;fill-rule:evenodd;stroke:none;stroke-width:2;stroke-linecap:round;stroke-linejoin:bevel;stroke-miterlimit:4;stroke-dasharray:none;stroke-dashoffset:36.28346634;stroke-opacity:1;marker:none;color-rendering:auto;image-rendering:auto;shape-rendering:auto;text-rendering:auto;enable-background:accumulate"
       id="rect11447"
       width="20.439653"
       height="15.445001"
       x="59.534592"
       y="133.94635"
       rx="1.0323459"
       ry="1.0323459" />
    <path
       id="rect11440"
       style="color:#000000;clip-rule:nonzero;display:inline;overflow:visible;visibility:visible;opacity:1;color-interpolation:sRGB;color-interpolation-filters:linearRGB;fill:#ff4000;fill-opacity:1;fill-rule:evenodd;stroke:none;stroke-width:2.55466652;stroke-linecap:round;stroke-linejoin:bevel;stroke-miterlimit:4;stroke-dasharray:none;stroke-dashoffset:36.28346634;stroke-opacity:1;marker:none;color-rendering:auto;image-rendering:auto;shape-rendering:auto;text-rendering:auto;enable-background:accumulate"
       d="M 80.94783,139.75912 H 66.304081 c -0.634217,0 -1.144796,0.42493 -1.144796,0.95278 v 1.73233 c 0,0.52784 0.510579,0.95278 1.144796,0.95278 H 80.94783 Z"
       inkscape:connector-curvature="0"
       sodipodi:nodetypes="csssscc" />
    <path
       style="font-style:normal;font-variant:normal;font-weight:bold;font-stretch:expanded;font-size:55.36935425px;line-height:125%;font-family:'Eurostile breit';-inkscape-font-specification:'Eurostile breit, Bold Expanded';font-variant-ligatures:normal;font-variant-caps:normal;font-variant-numeric:normal;font-feature-settings:normal;text-align:start;letter-spacing:-3.96875px;word-spacing:0px;writing-mode:lr-tb;text-anchor:start;fill:#ffffff;fill-opacity:1;stroke:none;stroke-width:0.90159363px;stroke-linecap:butt;stroke-linejoin:miter;stroke-opacity:1"
       d="m 66.49394,130.38578 c -2.960597,0 -5.157703,0.13539 -6.591106,0.40654 -1.43341,0.27117 -2.688027,0.73222 -3.764805,1.38301 -1.244961,0.77009 -2.201634,1.71355 -2.869678,2.83073 -0.669472,1.12805 -1.116918,2.54892 -1.342535,4.26265 l -0.610724,4.63891 c -0.22562,1.71375 -0.152297,3.13463 0.220158,4.26265 0.373885,1.11718 1.082076,2.06112 2.124269,2.83121 0.905423,0.65078 2.038706,1.11136 3.400715,1.38253 1.362008,0.27115 3.523405,0.40699 6.484002,0.40699 h 9.682612 c 2.986008,0 5.26408,-0.12491 6.834408,-0.37439 1.583027,-0.24948 2.876801,-0.6669 3.881478,-1.25262 1.058359,-0.60739 1.882799,-1.41552 2.473029,-2.42421 0.59023,-1.00872 0.987009,-2.28834 1.191208,-3.83938 0.04569,-0.34709 0.06145,-0.60899 0.116154,-1.31402 -0.0013,-0.0868 1.25e-4,-0.14626 0.0044,-0.1788 h -8.786543 l -0.03427,0.2603 c -0.168501,1.27989 -0.716168,2.15839 -1.643034,2.63564 -0.912733,0.46639 -2.747956,0.69989 -5.505247,0.69989 h -5.031735 c -2.782708,0 -4.601,-0.3257 -5.4556,-0.97648 -0.854598,-0.65079 -1.16733,-1.84908 -0.937426,-3.59537 l 0.222006,-1.68631 c 0.229904,-1.74629 0.858212,-2.94504 1.884169,-3.59585 1.025954,-0.65078 2.929942,-0.97601 5.71265,-0.97601 h 5.031735 c 2.757291,0 4.531094,0.23303 5.321025,0.69942 0.801203,0.47725 1.117556,1.35576 0.949056,2.63564 l -0.03427,0.2603 h 8.786543 c 0.0043,-0.0325 0.01851,-0.092 0.04267,-0.1788 0.130929,-0.70503 0.184078,-0.96647 0.229773,-1.31356 0.2042,-1.55105 0.14441,-2.83112 -0.180223,-3.83981 -0.324632,-1.00873 -0.936349,-1.81639 -1.834777,-2.42379 -0.850459,-0.58569 -2.03426,-1.00359 -3.551599,-1.25307 -1.504638,-0.24948 -3.749879,-0.37394 -6.735887,-0.37394 z"
       id="path11432"
       inkscape:connector-curvature="0"
       sodipodi:nodetypes="sccccccccsscccscccscssscccsscscccscccss" />
    <path
       id="path11547"
       style="font-style:italic;font-variant:normal;font-weight:normal;font-stretch:normal;font-size:medium;line-height:100%;font-family:Eurostile;-inkscape-font-specification:'Eurostile Italic';letter-spacing:0.79374999px;word-spacing:0px;fill:#ff2000;fill-opacity:1;stroke:none;stroke-width:0.26458332px;stroke-linecap:butt;stroke-linejoin:miter;stroke-opacity:1"
       d="m 157.63882,134.5456 q 0.87075,0 1.39526,0.0879 0.52452,0.0879 0.79324,0.34624 0.30747,0.32297 0.30747,0.91208 0,0.32557 -0.12661,0.88884 h -0.9095 q 0.005,-0.062 0.0439,-0.32039 0.0413,-0.26097 0.0413,-0.4005 0,-0.28938 -0.0853,-0.39015 -0.12144,-0.21446 -0.5116,-0.27647 -0.38757,-0.062 -1.16013,-0.062 -0.78032,0.0258 -1.12397,0.0646 -0.34106,0.0362 -0.6537,0.22996 -0.23255,0.1447 -0.35657,0.41341 -0.12402,0.26872 -0.17312,0.57103 -0.0491,0.3023 -0.0749,0.64595 0.0362,0.46767 0.27647,0.62529 0.18087,0.1266 0.47542,0.16795 0.29456,0.0387 0.74673,0.0413 0.45217,0 0.61753,0.0129 0.38241,0.0232 0.65371,0.0387 0.27388,0.0155 0.5426,0.0517 0.2713,0.0362 0.47801,0.10594 0.2067,0.0672 0.34881,0.19378 0.32815,0.30231 0.32815,0.90951 0,0.84491 -0.2868,1.65364 -0.28681,0.80874 -0.88884,1.18339 -0.46509,0.24805 -1.02061,0.31006 -0.55552,0.062 -1.41335,0.062 h -0.33848 q -0.65887,0 -1.1653,-0.0904 -0.50385,-0.093 -0.79324,-0.3669 -0.28422,-0.27905 -0.31781,-0.86558 0.0258,-0.4961 0.21188,-1.21698 h 0.88883 q -0.0181,0.12919 -0.0879,0.478 -0.0672,0.34882 -0.0801,0.54778 0.0336,0.34106 0.16537,0.47542 0.13436,0.13436 0.35657,0.18603 0.22479,0.0491 0.65629,0.0594 0.43408,0.008 0.43925,0.008 h 0.52968 q 0.62012,-0.0232 0.93534,-0.062 0.31781,-0.0413 0.55811,-0.1912 0.3824,-0.23771 0.54518,-0.76998 0.16278,-0.53485 0.16278,-1.11363 0,-0.32039 -0.10593,-0.46509 -0.12144,-0.17828 -0.38757,-0.2222 -0.26614,-0.0465 -0.95602,-0.0956 -0.31523,-0.0129 -0.74414,-0.0336 -0.42891,-0.0207 -0.81649,-0.0646 -0.38757,-0.0439 -0.69505,-0.13436 -0.30489,-0.093 -0.45475,-0.24288 -0.26872,-0.2558 -0.30489,-0.88883 0.0284,-0.36691 0.0956,-0.73381 0.0672,-0.36949 0.18604,-0.70021 0.12144,-0.33332 0.31781,-0.61754 0.19637,-0.28422 0.48834,-0.48834 0.43408,-0.29197 0.99736,-0.37465 0.56585,-0.0827 1.44952,-0.0827 z m -7.30498,0.8475 h -2.79311 l -0.66921,3.18585 h 2.71043 q 0.52451,-0.0207 0.85007,-0.0853 0.32557,-0.0672 0.55811,-0.28422 0.13436,-0.12144 0.23513,-0.30747 0.10335,-0.18862 0.16536,-0.38499 0.0646,-0.19637 0.10594,-0.39791 0.0439,-0.20154 0.0749,-0.33848 0.0853,-0.416 0.0853,-0.62529 0,-0.45992 -0.36174,-0.59944 -0.36173,-0.13953 -0.96118,-0.16278 z m 0.17828,-0.7829 q 0.69247,0.0181 1.13947,0.12919 0.44958,0.1111 0.68213,0.4315 0.22221,0.30489 0.22221,0.88883 0,0.48059 -0.11628,0.90951 -0.25321,1.09037 -0.62528,1.48311 -0.39016,0.43667 -1.19631,0.54002 v 0.0207 q 0.44958,0.0491 0.7338,0.29456 0.28423,0.24288 0.28423,0.65887 0,0.11369 -0.0439,0.47542 l -0.43408,2.10582 h -0.90951 l 0.36949,-1.73633 q 0.0646,-0.31264 0.0646,-0.58136 0,-0.84749 -1.14205,-0.84749 h -2.84738 l -0.66662,3.16518 h -0.90951 l 1.68207,-7.9375 z m -11.78274,5.51387 h 3.51142 l -0.74931,-4.77231 z m 2.2531,-5.51387 h 1.28157 l 1.27899,7.9375 h -0.93017 l -0.27647,-1.67173 h -3.99976 l -0.99477,1.67173 h -0.93018 z m -5.49373,2.4753 q 0.008,-0.0543 0.0413,-0.23771 0.0362,-0.18345 0.0594,-0.36432 0.0258,-0.18087 0.0258,-0.32815 0,-0.37207 -0.20671,-0.55293 -0.2067,-0.18087 -0.50126,-0.2248 -0.29455,-0.0465 -0.72088,-0.0465 -1.13172,0 -1.67174,0.10335 -1.13946,0.22996 -1.44952,1.55804 l -0.55035,2.68718 q -0.12661,0.52968 -0.16795,1.11104 0.0258,0.52452 0.24288,0.74156 0.29455,0.29455 1.05678,0.29455 h 0.65629 q 0.31781,0 0.45475,0.0233 0.63562,-0.0233 0.98961,-0.0904 0.35656,-0.0672 0.60978,-0.2713 0.15761,-0.11885 0.26096,-0.31006 0.10594,-0.1912 0.16537,-0.39015 0.062,-0.19896 0.11627,-0.47284 0.0568,-0.27389 0.093,-0.45476 h 0.9095 q -0.10077,0.51677 -0.14211,0.70539 -0.0387,0.18862 -0.13436,0.47284 -0.093,0.28422 -0.24546,0.53743 -0.15244,0.25322 -0.38757,0.45217 -0.3359,0.2713 -0.7674,0.40049 -0.4315,0.12661 -0.87333,0.15503 -0.44183,0.0284 -1.12138,0.0284 h -0.93276 q -0.51676,0 -0.89658,-0.1266 -0.37724,-0.12919 -0.63821,-0.47801 -0.31781,-0.41599 -0.34881,-1.17564 0.0388,-0.44442 0.0853,-0.6873 l 0.65629,-3.10058 q 0.23772,-1.10588 0.84491,-1.71307 0.49093,-0.48318 1.25832,-0.63304 0.76998,-0.15245 1.74925,-0.15245 h 0.41083 q 0.76739,0 1.17047,0.0879 0.40566,0.0853 0.65112,0.32557 0.30748,0.32297 0.30748,0.9741 0,0.44441 -0.14986,1.15238 z m -9.24026,-1.6924 h -2.79311 l -0.66921,3.18585 h 2.71043 q 0.52451,-0.0207 0.85007,-0.0853 0.32557,-0.0672 0.55811,-0.28422 0.13436,-0.12144 0.23513,-0.30747 0.10335,-0.18862 0.16536,-0.38499 0.0646,-0.19637 0.10594,-0.39791 0.0439,-0.20154 0.0749,-0.33848 0.0853,-0.416 0.0853,-0.62529 0,-0.45992 -0.36174,-0.59944 -0.36173,-0.13953 -0.96118,-0.16278 z m 0.17828,-0.7829 q 0.69247,0.0181 1.13947,0.12919 0.44958,0.1111 0.68213,0.4315 0.22221,0.30489 0.22221,0.88883 0,0.48059 -0.11628,0.90951 -0.25321,1.09037 -0.62528,1.48311 -0.39016,0.43667 -1.19631,0.54002 v 0.0207 q 0.44958,0.0491 0.7338,0.29456 0.28423,0.24288 0.28423,0.65887 0,0.11369 -0.0439,0.47542 l -0.43408,2.10582 h -0.90951 l 0.36949,-1.73633 q 0.0646,-0.31264 0.0646,-0.58136 0,-0.84749 -1.14205,-0.84749 h -2.84738 l -0.66662,3.16518 h -0.90951 l 1.68207,-7.9375 z m -12.40802,7.9375 1.67173,-7.9375 h 5.1108 l -0.16795,0.7829 h -4.21163 l -0.56069,2.71043 h 4.03076 l -0.16795,0.73897 h -4.03334 l -0.61237,2.9223 h 4.21163 l -0.17053,0.7829 z m -6.04408,-3.07992 -0.65629,3.07992 h -0.88883 l 1.67173,-7.9375 h 4.05401 q 1.14464,0 1.41594,0.76223 0.0853,0.22221 0.0853,0.62528 0,0.81649 -0.24546,1.61747 -0.24288,0.7984 -0.74931,1.25057 -0.60203,0.60203 -1.67173,0.60203 z m 0.16795,-0.80356 h 2.5399 q 0.54001,0 0.84749,-0.062 0.31006,-0.0646 0.49609,-0.23512 0.70022,-0.60979 0.70022,-2.22209 0,-0.27647 -0.0207,-0.33848 -0.0853,-0.21963 -0.33848,-0.31523 -0.25063,-0.0982 -0.7519,-0.0982 h -2.77244 z m -6.85023,3.16259 q 0.13694,0 0.22221,0.0233 0.72089,-0.0258 1.11621,-0.0878 0.39533,-0.0646 0.64079,-0.27389 0.2713,-0.23254 0.41599,-0.63045 0.14728,-0.39791 0.25063,-0.93534 l 1.11105,-5.31234 h 0.88883 l -1.09037,5.22707 q -0.1111,0.55035 -0.22221,0.93276 -0.1111,0.38241 -0.33073,0.74156 -0.21704,0.35915 -0.56844,0.60203 -0.34623,0.23254 -0.79065,0.34106 -0.44183,0.10852 -0.87075,0.13178 -0.42633,0.0258 -1.04903,0.0258 -0.78031,0 -1.284157,-0.0594 -0.503845,-0.0594 -0.862996,-0.29198 -0.488343,-0.31522 -0.519348,-1.16271 0.03101,-0.48576 0.191202,-1.17564 l 1.111044,-5.31234 h 0.909505 l -1.131714,5.35626 q -0.0155,0.10594 -0.0956,0.46767 -0.0801,0.35915 -0.0956,0.56844 0.03359,0.31523 0.20929,0.49351 0.178283,0.17829 0.439249,0.24805 0.260965,0.0698 0.594275,0.0853 0.3359,0.0129 0.57878,0.0207 0.0853,-0.0233 0.23254,-0.0233 z" />
    <path
       id="path11518"
       style="font-style:italic;font-variant:normal;font-weight:normal;font-stretch:normal;font-size:medium;line-height:100%;font-family:Eurostile;-inkscape-font-specification:'Eurostile Italic';letter-spacing:0.79374999px;word-spacing:1.32291663px;fill:#0080e0;fill-opacity:1;stroke:none;stroke-width:0.26458332px;stroke-linecap:butt;stroke-linejoin:miter;stroke-opacity:1"
       d="m 172.85416,148.32997 -0.65629,3.07991 h -0.88883 l 1.67173,-7.9375 h 4.05402 q 1.14463,0 1.41593,0.76223 0.0853,0.22221 0.0853,0.62528 0,0.81649 -0.24547,1.61748 -0.24287,0.7984 -0.7493,1.25057 -0.60203,0.60203 -1.67174,0.60203 z m 0.16795,-0.80357 h 2.5399 q 0.54002,0 0.84749,-0.062 0.31006,-0.0646 0.4961,-0.23513 0.70021,-0.60978 0.70021,-2.22209 0,-0.27647 -0.0207,-0.33848 -0.0853,-0.21962 -0.33848,-0.31523 -0.25063,-0.0982 -0.75189,-0.0982 h -2.77244 z m -3.11661,-4.05402 h 0.90951 l -1.69241,7.9375 h -0.88883 z m -8.73124,0 h 0.88883 l -0.74156,3.49333 h 4.65863 l 0.73898,-3.49333 h 0.91209 l -1.69499,7.9375 h -0.88884 l 0.76223,-3.6406 h -4.64571 l -0.77256,3.6406 h -0.90951 z m -4.85552,-0.0646 q 0.87075,0 1.39526,0.0879 0.52452,0.0879 0.79324,0.34623 0.30747,0.32298 0.30747,0.91209 0,0.32556 -0.12661,0.88883 h -0.9095 q 0.005,-0.062 0.0439,-0.32039 0.0413,-0.26097 0.0413,-0.40049 0,-0.28939 -0.0853,-0.39016 -0.12144,-0.21446 -0.5116,-0.27647 -0.38757,-0.062 -1.16013,-0.062 -0.78032,0.0258 -1.12397,0.0646 -0.34106,0.0362 -0.6537,0.22996 -0.23255,0.1447 -0.35657,0.41342 -0.12402,0.26871 -0.17312,0.57102 -0.0491,0.30231 -0.0749,0.64596 0.0362,0.46767 0.27647,0.62528 0.18087,0.12661 0.47542,0.16795 0.29456,0.0388 0.74673,0.0413 0.45217,0 0.61753,0.0129 0.38241,0.0232 0.65371,0.0388 0.27388,0.0155 0.5426,0.0517 0.2713,0.0362 0.47801,0.10594 0.2067,0.0672 0.34881,0.19379 0.32815,0.3023 0.32815,0.9095 0,0.84491 -0.2868,1.65365 -0.28681,0.80873 -0.88884,1.18339 -0.46509,0.24804 -1.02061,0.31006 -0.55552,0.062 -1.41335,0.062 h -0.33848 q -0.65887,0 -1.1653,-0.0904 -0.50385,-0.093 -0.79324,-0.3669 -0.28422,-0.27905 -0.31781,-0.86558 0.0258,-0.49609 0.21188,-1.21698 h 0.88883 q -0.0181,0.12919 -0.0879,0.47801 -0.0672,0.34881 -0.0801,0.54777 0.0336,0.34106 0.16537,0.47542 0.13436,0.13436 0.35657,0.18604 0.22479,0.0491 0.65629,0.0594 0.43408,0.008 0.43925,0.008 h 0.52968 q 0.62012,-0.0233 0.93534,-0.062 0.31781,-0.0413 0.55811,-0.1912 0.3824,-0.23771 0.54518,-0.76998 0.16279,-0.53485 0.16279,-1.11363 0,-0.32039 -0.10594,-0.46508 -0.12144,-0.17829 -0.38757,-0.22221 -0.26614,-0.0465 -0.95602,-0.0956 -0.31522,-0.0129 -0.74414,-0.0336 -0.42891,-0.0207 -0.81649,-0.0646 -0.38757,-0.0439 -0.69504,-0.13436 -0.3049,-0.093 -0.45476,-0.24288 -0.26871,-0.25579 -0.30489,-0.88883 0.0284,-0.3669 0.0956,-0.73381 0.0672,-0.36948 0.18604,-0.70021 0.12144,-0.33331 0.31781,-0.61754 0.19637,-0.28422 0.48834,-0.48834 0.43408,-0.29197 0.99736,-0.37465 0.56585,-0.0827 1.44952,-0.0827 z m -11.70781,0.0646 h 1.48053 l 2.9223,7.26054 h 0.0207 l 1.52445,-7.26054 h 0.90951 l -1.6924,7.9375 h -1.47278 l -2.93006,-7.19594 h -0.0207 l -1.53479,7.19594 h -0.91208 z m -5.23793,0.72089 h -0.45475 q -0.62012,0 -1.00769,0.10077 -0.38499,0.0982 -0.65371,0.43666 -0.12661,0.17054 -0.22738,0.42633 -0.0982,0.25322 -0.15761,0.46509 -0.0568,0.21187 -0.11369,0.45475 l -0.59169,2.81379 q -0.0982,0.53226 -0.12661,0.84749 0.0258,0.28422 0.10594,0.47542 0.10593,0.28939 0.43408,0.37207 0.33073,0.0827 0.90951,0.10336 h 0.54001 q 0.26355,0 0.39016,0.0233 0.62529,-0.0233 0.97152,-0.10077 0.34623,-0.0801 0.61753,-0.33331 0.16795,-0.15245 0.32298,-0.4961 0.15761,-0.34623 0.23771,-0.71055 l 0.63562,-3.05924 q 0.005,-0.0413 0.0388,-0.20671 0.0362,-0.16795 0.062,-0.34365 0.0258,-0.17828 0.0258,-0.31781 0,-0.39274 -0.20929,-0.62786 -0.20671,-0.23513 -0.59686,-0.28164 -0.32815,-0.0413 -1.15239,-0.0413 z m 0.18087,-0.78548 h 0.27388 q 0.57103,0 0.9741,0.0439 0.40566,0.0413 0.75706,0.20671 0.3514,0.16536 0.5116,0.49092 0.0388,0.0413 0.093,0.2248 0.0568,0.18086 0.0568,0.59169 0,0.51418 -0.14986,1.27899 l -0.57102,2.7311 q -0.25839,1.12655 -0.79324,1.73633 -0.447,0.47284 -1.03094,0.61753 -0.58136,0.1447 -1.42369,0.1447 h -0.74155 q -0.83458,0 -1.34618,-0.11369 -0.51159,-0.11627 -0.78031,-0.5116 -0.21704,-0.31006 -0.2558,-0.9741 0.0388,-0.51418 0.12919,-0.94051 l 0.5917,-2.79569 q 0.28939,-1.3746 0.83716,-1.96888 0.33848,-0.34881 0.80357,-0.51676 0.46767,-0.16795 0.93275,-0.20671 0.46509,-0.0387 1.13172,-0.0387 z m -6.02857,0.0646 h 0.9095 l -1.6924,7.9375 h -0.88883 z m -8.04396,4.85759 -0.65629,3.07991 h -0.88883 l 1.67173,-7.9375 h 4.05402 q 1.14463,0 1.41593,0.76223 0.0853,0.22221 0.0853,0.62528 0,0.81649 -0.24547,1.61748 -0.24287,0.7984 -0.7493,1.25057 -0.60203,0.60203 -1.67174,0.60203 z m 0.16795,-0.80357 h 2.5399 q 0.54002,0 0.84749,-0.062 0.31006,-0.0646 0.4961,-0.23513 0.70021,-0.60978 0.70021,-2.22209 0,-0.27647 -0.0207,-0.33848 -0.0853,-0.21962 -0.33848,-0.31523 -0.25063,-0.0982 -0.75189,-0.0982 h -2.77244 z m -12.62248,3.88348 1.70274,-7.9375 h 1.54512 l 1.36426,6.80579 4.25555,-6.80579 h 1.57613 l -1.6924,7.9375 h -0.88883 l 1.54512,-7.26054 h -0.0207 l -4.55269,7.26054 h -0.88884 l -1.45986,-7.26054 h -0.0207 l -1.55546,7.26054 z m -6.38773,-2.42362 h 3.51142 l -0.74931,-4.77232 z m 2.2531,-5.51388 h 1.28157 l 1.27899,7.9375 h -0.93017 l -0.27647,-1.67173 h -3.99976 l -0.99477,1.67173 h -0.93017 z m -10.932669,0 h 0.888834 l -0.741556,3.49333 h 4.658631 l 0.73897,-3.49333 h 0.91209 l -1.69499,7.9375 h -0.88883 l 0.76223,-3.6406 h -4.645715 l -0.772562,3.6406 h -0.909505 z" />
  </g>
</svg>
