<?xml version="1.0" encoding="UTF-8" standalone="no"?>
<!-- Created with Inkscape (http://www.inkscape.org/) -->

<svg
   xmlns:dc="http://purl.org/dc/elements/1.1/"
   xmlns:cc="http://creativecommons.org/ns#"
   xmlns:rdf="http://www.w3.org/1999/02/22-rdf-syntax-ns#"
   xmlns:svg="http://www.w3.org/2000/svg"
   xmlns="http://www.w3.org/2000/svg"
   xmlns:sodipodi="http://sodipodi.sourceforge.net/DTD/sodipodi-0.dtd"
   xmlns:inkscape="http://www.inkscape.org/namespaces/inkscape"
   width="512"
   height="512"
   viewBox="0 0 512.00001 512.00001"
   id="svg2"
   version="1.1"
   inkscape:version="0.91 r13725"
   sodipodi:docname="Builderstone-tyres.svg"
   inkscape:export-filename="D:\Raphaël Schaffo\Desktop\Builderstone-tyres.png"
   inkscape:export-xdpi="90"
   inkscape:export-ydpi="90">
  <defs
     id="defs4" />
  <sodipodi:namedview
     id="base"
     pagecolor="#ffffff"
     bordercolor="#666666"
     borderopacity="1.0"
     inkscape:pageopacity="0.0"
     inkscape:pageshadow="2"
     inkscape:zoom="0.7071068"
     inkscape:cx="-22.05909"
     inkscape:cy="252.82474"
     inkscape:document-units="px"
     inkscape:current-layer="layer2"
     showgrid="false"
     units="px"
     inkscape:snap-bbox="false"
     inkscape:bbox-paths="true"
     inkscape:bbox-nodes="true"
     inkscape:snap-bbox-edge-midpoints="true"
     inkscape:snap-bbox-midpoints="true"
     inkscape:object-paths="true"
     inkscape:snap-intersection-paths="true"
     inkscape:object-nodes="true"
     inkscape:snap-smooth-nodes="true"
     inkscape:snap-midpoints="true"
     inkscape:snap-object-midpoints="true"
     inkscape:snap-center="true"
     inkscape:snap-text-baseline="true"
     inkscape:snap-page="true"
     inkscape:snap-global="false"
     showguides="true"
     inkscape:window-width="1920"
     inkscape:window-height="1017"
     inkscape:window-x="-8"
     inkscape:window-y="-8"
     inkscape:window-maximized="1"
     inkscape:guide-bbox="true"
     inkscape:snap-nodes="true">
    <sodipodi:guide
       position="256,446.89148"
       orientation="1,0"
       id="guide4151"
       inkscape:label=""
       inkscape:color="rgb(0,0,255)" />
    <sodipodi:guide
       position="-145.664,256"
       orientation="0,1"
       id="guide4153"
       inkscape:label=""
       inkscape:color="rgb(0,0,255)" />
    <sodipodi:guide
       position="-86.974133,128"
       orientation="0,1"
       id="guide4155"
       inkscape:label=""
       inkscape:color="rgb(0,0,255)" />
  </sodipodi:namedview>
  <metadata
     id="metadata7">
    <rdf:RDF>
      <cc:Work
         rdf:about="">
        <dc:format>image/svg+xml</dc:format>
        <dc:type
           rdf:resource="http://purl.org/dc/dcmitype/StillImage" />
        <dc:title />
      </cc:Work>
    </rdf:RDF>
  </metadata>
  <g
     inkscape:label="Background"
     inkscape:groupmode="layer"
     id="layer1"
     transform="translate(0,-540.36216)"
     sodipodi:insensitive="true">
    <rect
       style="opacity:1;fill:#1a1a1a;fill-opacity:1;stroke:none;stroke-width:3;stroke-linecap:square;stroke-linejoin:miter;stroke-miterlimit:4;stroke-dasharray:none;stroke-dashoffset:0;stroke-opacity:1"
       id="rect4136"
       width="512"
       height="512"
       x="0"
       y="540.36218" />
  </g>
  <g
     inkscape:groupmode="layer"
     id="layer2"
     inkscape:label="Main Logo"
     sodipodi:insensitive="true">
    <g
       transform="translate(52.857143,3.571429)"
       style="font-style:normal;font-weight:normal;font-size:66.82174683px;line-height:125%;font-family:sans-serif;letter-spacing:0px;word-spacing:0px;fill:#000000;fill-opacity:1;stroke:none;stroke-width:1px;stroke-linecap:butt;stroke-linejoin:miter;stroke-opacity:1"
       id="flowRoot4139" />
    <g
       id="g4239"
       transform="translate(0,7.0710676)">
      <path
         inkscape:connector-curvature="0"
         id="path4151-6"
         d="m 45.474609,82.357422 23.871094,29.205078 -2.21875,7.67969 2.472656,-8.55274 c 0.133643,-0.53457 0.06611,-1.13646 -0.201171,-1.80468 -0.22274,-0.66822 -0.602145,-1.29003 -1.136719,-1.86915 -0.490026,-0.62367 -1.08997,-1.15998 -1.802735,-1.60546 -0.668217,-0.44548 -1.337641,-0.73355 -2.005859,-0.86719 0.356383,-0.0891 0.958278,-0.28973 1.804687,-0.60156 0.846409,-0.35638 1.736372,-0.80332 2.671876,-1.33789 0.935505,-0.53457 1.783702,-1.11266 2.541015,-1.73633 0.801861,-0.66821 1.312417,-1.381361 1.535156,-2.138674 l 2.472657,-8.486328 0.06836,-1.136719 c 0.178191,-2.405583 -0.201215,-4.11993 -1.136719,-5.144531 -0.935505,-1.069148 -2.717381,-1.603516 -5.345703,-1.603516 l -23.589844,0 z"
         style="font-style:italic;font-variant:normal;font-weight:normal;font-stretch:normal;font-size:66.82174683px;line-height:125%;font-family:'Nightwraith Italic';-inkscape-font-specification:'Nightwraith Italic, Italic';letter-spacing:0px;word-spacing:0px;fill:#ffffff;fill-opacity:1;stroke:none;stroke-width:1px;stroke-linecap:butt;stroke-linejoin:miter;stroke-opacity:1" />
      <path
         inkscape:connector-curvature="0"
         id="path4153"
         style="font-style:italic;font-variant:normal;font-weight:normal;font-stretch:normal;font-size:66.82174683px;line-height:125%;font-family:'Nightwraith Italic';-inkscape-font-specification:'Nightwraith Italic, Italic';letter-spacing:0px;word-spacing:0px;fill:#ffffff;fill-opacity:1;stroke:none;stroke-width:1px;stroke-linecap:butt;stroke-linejoin:miter;stroke-opacity:1"
         d="m 63.057514,78.785995 -14.90125,0 -10.090084,35.215065 q -0.133643,0.40093 -0.200465,0.53457 -0.06682,0.13364 -0.200465,0.26729 -0.133644,0.0668 -0.400931,0.20046 -0.200465,0.0668 -0.534574,0.40093 -0.133643,0.13365 -1.002326,0.13365 -0.735039,0 -1.5369,-0.0668 -0.735039,-0.13364 -0.534574,-0.13364 -0.200465,0 -0.267287,0.0668 -0.06682,0 -0.133643,0 l -0.267287,-1.40325 10.090083,-35.215065 -14.901249,0 -9.622332,33.744985 q -0.467752,1.67054 -0.40093,3.34108 l 0,0.26729 q 0,1.33644 0.200465,2.67287 0.267287,1.33644 0.868683,2.40558 0.601396,1.06915 1.603722,1.73737 1.069148,0.66822 2.739691,0.66822 l 26.661877,0 12.829776,-44.837395 z"
         transform="translate(52.857143,3.571429)" />
      <path
         inkscape:connector-curvature="0"
         id="path4155"
         style="font-style:italic;font-variant:normal;font-weight:normal;font-stretch:normal;font-size:66.82174683px;line-height:125%;font-family:'Nightwraith Italic';-inkscape-font-specification:'Nightwraith Italic, Italic';letter-spacing:0px;word-spacing:0px;fill:#ffffff;fill-opacity:1;stroke:none;stroke-width:1px;stroke-linecap:butt;stroke-linejoin:miter;stroke-opacity:1"
         d="m 83.589539,123.62339 2.67287,-9.35505 -7.283571,0 7.484036,-26.1273 7.350392,0 2.67287,-9.355045 -30.069786,0 -2.472405,8.620006 0.06682,0.735039 11.359697,0 0.200465,0.267287 0,0.200465 -0.200465,0.200465 q -0.801861,0.668218 -1.804187,1.403257 -0.935505,0.668218 -1.871009,1.5369 -0.935505,0.801861 -1.737365,1.804187 -0.73504,0.935505 -1.069148,2.004653 l -5.34574,18.710086 -7.350392,0 -2.472405,8.62001 0.06682,0.73504 29.802499,0 z"
         transform="translate(52.857143,3.571429)" />
      <path
         inkscape:connector-curvature="0"
         id="path4157"
         style="font-style:italic;font-variant:normal;font-weight:normal;font-stretch:normal;font-size:66.82174683px;line-height:125%;font-family:'Nightwraith Italic';-inkscape-font-specification:'Nightwraith Italic, Italic';letter-spacing:0px;word-spacing:0px;fill:#ffffff;fill-opacity:1;stroke:none;stroke-width:1px;stroke-linecap:butt;stroke-linejoin:miter;stroke-opacity:1"
         d="m 114.59483,78.785995 -9.48869,33.277235 q -0.20046,0.53457 0,1.40325 0.20047,0.80186 0.86868,0.80186 l 14.4335,0 -2.4724,8.55319 -0.40093,0.80186 -22.719398,0 q -1.804187,0 -3.0738,-0.73504 -1.202791,-0.73504 -1.871009,-1.93783 -0.668217,-1.20279 -0.801861,-2.67287 -0.133643,-1.5369 0.334109,-3.14062 l 10.424192,-36.351035 14.767607,0 z"
         transform="translate(52.857143,3.571429)" />
      <path
         inkscape:connector-curvature="0"
         id="path4159"
         style="font-style:italic;font-variant:normal;font-weight:normal;font-stretch:normal;font-size:66.82174683px;line-height:125%;font-family:'Nightwraith Italic';-inkscape-font-specification:'Nightwraith Italic, Italic';letter-spacing:0px;word-spacing:0px;fill:#ffffff;fill-opacity:1;stroke:none;stroke-width:1px;stroke-linecap:butt;stroke-linejoin:miter;stroke-opacity:1"
         d="m 121.26134,122.82153 12.62931,-44.035535 24.72405,0 q 1.93783,0 3.40791,0.868683 1.5369,0.868683 2.53923,2.27194 1.00232,1.336434 1.47007,3.0738 0.53458,1.737365 0.53458,3.407909 l -0.0668,0.668217 q 0.13364,0.668218 0.0668,1.269614 -0.0668,0.601395 -0.20047,1.135969 l -4.81116,16.772263 q 0,0 0,0.0668 0.0668,0.0668 0,0.20046 -0.46775,0.93551 -0.86869,2.07148 -0.40093,1.06914 -0.60139,1.93783 l -0.20047,0.86868 q -1.5369,3.40791 -3.54155,5.54621 -1.93783,2.13829 -5.34574,3.54155 -0.73504,0.33411 -2.00465,0.73504 -1.26961,0.40093 -2.20512,0.40093 l -25.45908,0 -0.0668,-0.80186 z m 17.03955,-7.75133 0,0.0668 q 0,0.20046 0.20046,0.20046 l 2.07148,0 q 1.33643,0 2.40558,-0.53457 1.06915,-0.53458 1.47008,-1.93783 l 9.42187,-32.74266 -0.20047,-0.133643 -0.20046,0 -4.41024,3.608374 q -0.86868,0.735039 -1.73736,1.804187 -0.80187,1.069148 -1.13597,2.205118 l -7.88497,27.463734 z"
         transform="translate(52.857143,3.571429)" />
      <path
         inkscape:connector-curvature="0"
         id="path4161"
         style="font-style:italic;font-variant:normal;font-weight:normal;font-stretch:normal;font-size:66.82174683px;line-height:125%;font-family:'Nightwraith Italic';-inkscape-font-specification:'Nightwraith Italic, Italic';letter-spacing:0px;word-spacing:0px;fill:#ffffff;fill-opacity:1;stroke:none;stroke-width:1px;stroke-linecap:butt;stroke-linejoin:miter;stroke-opacity:1"
         d="m 162.94455,115.87206 q 0,1.47008 0.26728,2.87334 0.33411,1.33643 1.00233,2.4724 0.66822,1.06915 1.73737,1.73737 1.06914,0.66822 2.60604,0.66822 l 23.05351,0 2.40558,-8.2859 -0.0668,-0.86868 -13.09707,0 q -0.3341,0 -1.06914,-0.33411 -0.73504,-0.40093 -0.80186,-0.9355 l -0.0668,-2.07148 1.67055,-5.88031 15.369,0 2.60605,-9.154582 -8.55319,0 q -2.00465,0 -3.87566,1.13597 -1.80418,1.069147 -3.34108,2.138295 l 0,0.06682 -0.20047,-0.06682 -0.13364,0 q 0,-0.06682 -0.0668,-0.06682 0,0 0,-0.06682 l 2.53923,-8.954114 q 0.13364,-0.467752 0.80186,-1.269613 0.66822,-0.868683 1.33644,-0.868683 l 14.43349,0 2.47241,-8.620005 0,-0.73504 -22.71939,0 q -1.80419,0 -3.47474,0.73504 -1.67054,0.735039 -3.00697,1.93783 -1.33644,1.202792 -2.33877,2.739692 -0.9355,1.470078 -1.40325,3.0738 l -7.88497,27.46374 -0.13364,0.60139 q -0.0668,0.20047 -0.0668,0.53457 z"
         transform="translate(52.857143,3.571429)" />
      <path
         inkscape:connector-curvature="0"
         id="path4163"
         style="font-style:italic;font-variant:normal;font-weight:normal;font-stretch:normal;font-size:66.82174683px;line-height:125%;font-family:'Nightwraith Italic';-inkscape-font-specification:'Nightwraith Italic, Italic';letter-spacing:0px;word-spacing:0px;fill:#ffffff;fill-opacity:1;stroke:none;stroke-width:1px;stroke-linecap:butt;stroke-linejoin:miter;stroke-opacity:1"
         d="m 195.1307,122.82153 12.62931,-44.035535 26.66188,0 q 4.0093,0 5.47938,1.536901 1.47008,1.5369 1.26961,5.145274 0,0.267287 -0.13364,0.601396 l -1.60372,5.679848 q -0.93551,3.073801 -2.7397,5.34574 -1.80418,2.205118 -5.34573,2.873335 l -3.00698,0.534571 q 3.0738,0.73504 4.94481,2.40559 1.93783,1.67054 1.40325,5.01163 l -0.40093,2.60605 -3.74202,13.09706 -15.63628,0 5.27891,-18.37598 -4.67752,0 -5.27892,18.37598 -15.03489,0 -0.0668,-0.80186 z m 25.86001,-36.751964 -3.80884,13.297527 q 1.33644,-0.868682 2.67287,-1.737365 1.33644,-0.935504 2.87334,-1.336435 l 4.67752,-16.237684 q -0.46775,0 -1.47008,0.735039 -0.9355,0.668217 -2.00465,1.670543 -1.06915,1.002327 -1.93783,2.004653 -0.80186,1.002326 -1.00233,1.603722 z"
         transform="translate(52.857143,3.571429)" />
      <path
         inkscape:connector-curvature="0"
         id="path4165"
         style="font-style:italic;font-variant:normal;font-weight:normal;font-stretch:normal;font-size:66.82174683px;line-height:125%;font-family:'Nightwraith Italic';-inkscape-font-specification:'Nightwraith Italic, Italic';letter-spacing:0px;word-spacing:0px;fill:#ffffff;fill-opacity:1;stroke:none;stroke-width:1px;stroke-linecap:butt;stroke-linejoin:miter;stroke-opacity:1"
         d="m 237.16052,115.0702 q -0.0668,-1.871 0.26729,-3.47473 0.40093,-1.60372 0.9355,-3.34108 0.13364,-0.33411 0.26729,-0.73504 0.13364,-0.40093 0.13364,-0.40093 l 14.63396,0 0.0668,0.73504 -1.47008,5.01163 q 0.0668,0.0668 0,0.26728 0,0.13365 0,0.20047 0.13364,0.9355 0.80186,1.26961 0.73504,0.26729 1.47008,0.26729 1.5369,0 2.27194,-0.80186 0.80186,-0.86868 1.13597,-2.1383 l 0.86868,-3.0738 0.0668,-0.53457 q -0.13364,0 0,-0.20047 l 0,-0.20046 q 0,-1.47008 -1.00233,-2.20512 -1.00232,-0.73504 -2.60604,-1.13597 -1.5369,-0.40093 -3.47474,-0.66822 -1.93783,-0.33411 -3.74201,-0.9355 -1.73737,-0.6014 -3.14063,-1.73737 -1.40325,-1.13597 -1.93783,-3.207442 l 0,-2.739691 q -0.0668,-1.13597 0.13365,-2.071474 0.20046,-0.935505 0.53457,-2.004653 l 0.6014,-2.071474 q 1.06915,-2.405583 2.73969,-4.20977 1.67054,-1.871009 3.54155,-3.140622 1.93783,-1.269613 3.87566,-2.004652 1.93783,-0.73504 3.60838,-0.935505 l 10.1569,0 q 2.00466,0 3.94249,0.200465 2.00465,0.133644 3.54155,0.801861 1.60372,0.668218 2.53922,2.071475 1.00233,1.403256 1.00233,3.875661 l -0.13364,2.071474 q 0.0668,0.06682 -0.0668,0.668217 l -1.00233,3.341088 -14.29985,0 3.27426,-11.292875 -0.0668,-0.534574 q 0,-0.200466 -0.26729,-0.267287 -1.26961,1.002326 -2.60605,2.071474 -1.26961,1.069148 -2.40558,2.338761 -1.13597,1.202791 -2.00465,2.606048 -0.86868,1.336435 -1.33644,2.940157 -0.13364,0.40093 -0.13364,0.534574 0,0.133643 0,0.267287 0.0668,0.06682 0.13364,0.267287 0.0668,0.200465 0.0668,0.601396 0,1.403256 1.20279,2.071474 1.20279,0.668217 3.00698,1.069148 1.871,0.40093 3.94248,0.801861 2.1383,0.334108 3.94248,1.269613 1.80419,0.868683 3.00698,2.539226 1.20279,1.603722 1.20279,4.477062 -0.0668,2.00465 -0.46775,3.74201 -0.40093,1.73737 -0.9355,3.60838 l -0.20047,0.66821 q -1.06915,3.80884 -3.54155,6.14761 -2.40559,2.33876 -5.34574,3.67519 -2.94016,1.26961 -5.94714,1.73737 -3.00698,0.46775 -5.21209,0.46775 l -2.80652,0 q -2.33876,0 -4.27659,-0.26729 -1.93783,-0.33411 -3.47473,-1.20279 -1.5369,-0.9355 -2.80651,-2.60605 -1.20279,-1.73736 -2.20512,-4.54388 z"
         transform="translate(52.857143,3.571429)" />
      <path
         inkscape:connector-curvature="0"
         id="path4167"
         style="font-style:italic;font-variant:normal;font-weight:normal;font-stretch:normal;font-size:66.82174683px;line-height:125%;font-family:'Nightwraith Italic';-inkscape-font-specification:'Nightwraith Italic, Italic';letter-spacing:0px;word-spacing:0px;fill:#ffffff;fill-opacity:1;stroke:none;stroke-width:1px;stroke-linecap:butt;stroke-linejoin:miter;stroke-opacity:1"
         d="m 279.99849,123.62339 15.43582,0 10.15691,-35.48235 7.35039,0 2.67287,-9.355045 -30.06979,0 -2.4724,8.620006 0.0668,0.735039 11.3597,0 0.20046,0.267287 0,0.200465 -0.20046,0.200465 q -0.80187,0.668218 -1.80419,1.403257 -0.93551,0.668218 -1.87101,1.5369 -0.9355,0.801861 -1.73737,1.804187 -0.73504,0.935505 -1.06914,2.004653 l -8.01861,28.065136 z"
         transform="translate(52.857143,3.571429)" />
      <path
         inkscape:connector-curvature="0"
         id="path4169"
         style="font-style:italic;font-variant:normal;font-weight:normal;font-stretch:normal;font-size:66.82174683px;line-height:125%;font-family:'Nightwraith Italic';-inkscape-font-specification:'Nightwraith Italic, Italic';letter-spacing:0px;word-spacing:0px;fill:#ffffff;fill-opacity:1;stroke:none;stroke-width:1px;stroke-linecap:butt;stroke-linejoin:miter;stroke-opacity:1"
         d="m 325.37047,123.69021 -2.73969,0 q -3.80884,0 -6.81582,-0.33411 -2.94016,-0.33411 -4.74435,-1.5369 -1.80418,-1.20279 -2.33876,-3.47473 -0.46775,-2.27194 0.66822,-6.08078 l 6.28124,-22.051176 q 1.67055,-5.679848 5.14528,-8.486362 3.54155,-2.873335 9.62233,-2.873335 l 12.2952,0 q 2.87334,0 5.07845,0.601396 2.20512,0.601396 3.47474,2.004652 1.33643,1.336435 1.60372,3.541553 0.26728,2.138296 -0.6014,5.278918 l -6.28124,21.917534 q -1.20279,4.14295 -3.14062,6.48171 -1.93784,2.33876 -4.54388,3.47473 -2.60605,1.06915 -5.88032,1.33643 -3.27426,0.20047 -7.0831,0.20047 z m -0.46775,-10.55784 q 0,1.13597 0.66821,1.5369 0.73504,0.33411 1.67055,0.33411 2.53922,0 3.27426,-2.33876 l 9.35505,-32.54219 -0.73504,0 q -0.13365,0.06682 -0.80186,0.601396 -0.66822,0.534574 -1.67055,1.336435 -0.9355,0.801861 -1.40325,1.202791 l -1.87101,1.937831 q -0.20047,0.133644 -0.46775,0.467752 -0.20047,0.267287 -0.33411,0.601396 l -7.6845,26.862339 z"
         transform="translate(52.857143,3.571429)" />
      <path
         inkscape:connector-curvature="0"
         id="path4171"
         style="font-style:italic;font-variant:normal;font-weight:normal;font-stretch:normal;font-size:66.82174683px;line-height:125%;font-family:'Nightwraith Italic';-inkscape-font-specification:'Nightwraith Italic, Italic';letter-spacing:0px;word-spacing:0px;fill:#ffffff;fill-opacity:1;stroke:none;stroke-width:1px;stroke-linecap:butt;stroke-linejoin:miter;stroke-opacity:1"
         d="m 346.06224,123.62339 15.03489,0 10.69148,-37.286537 q 0.26729,-0.868683 0.86868,-2.004653 0.6014,-1.135969 1.33644,-1.737365 0.26728,-0.200465 0.86868,-0.534574 0.6014,-0.40093 1.26961,-0.801861 0.73504,-0.40093 1.33644,-0.735039 0.60139,-0.400931 0.86868,-0.534574 l 0.13364,0 0.20047,0.133643 -12.49567,43.50096 15.76993,0 9.68916,-33.878628 q 0.53457,-1.603722 0.33411,-3.274266 l 0.0668,-0.267287 q 0,-1.403256 -0.40093,-2.739691 -0.33411,-1.336435 -1.13597,-2.338761 -0.73504,-1.069148 -1.93783,-1.670544 -1.13597,-0.668218 -2.80652,-0.668218 l -26.86234,0 -12.82977,44.837395 z"
         transform="translate(52.857143,3.571429)" />
      <path
         inkscape:connector-curvature="0"
         id="path4173"
         style="font-style:italic;font-variant:normal;font-weight:normal;font-stretch:normal;font-size:66.82174683px;line-height:125%;font-family:'Nightwraith Italic';-inkscape-font-specification:'Nightwraith Italic, Italic';letter-spacing:0px;word-spacing:0px;fill:#ffffff;fill-opacity:1;stroke:none;stroke-width:1px;stroke-linecap:butt;stroke-linejoin:miter;stroke-opacity:1"
         d="m 387.68487,115.87206 q 0,1.47008 0.26729,2.87334 0.33411,1.33643 1.00233,2.4724 0.66821,1.06915 1.73736,1.73737 1.06915,0.66822 2.60605,0.66822 l 23.0535,0 2.40558,-8.2859 -0.0668,-0.86868 -13.09706,0 q -0.33411,0 -1.06915,-0.33411 -0.73504,-0.40093 -0.80186,-0.9355 l -0.0668,-2.07148 1.67054,-5.88031 15.36901,0 2.60604,-9.154582 -8.55318,0 q -2.00465,0 -3.87566,1.13597 -1.80419,1.069147 -3.34109,2.138295 l 0,0.06682 -0.20046,-0.06682 -0.13365,0 q 0,-0.06682 -0.0668,-0.06682 0,0 0,-0.06682 l 2.53923,-8.954114 q 0.13364,-0.467752 0.80186,-1.269613 0.66822,-0.868683 1.33643,-0.868683 l 14.4335,0 2.4724,-8.620005 0,-0.73504 -22.71939,0 q -1.80419,0 -3.47473,0.73504 -1.67054,0.735039 -3.00698,1.93783 -1.33643,1.202792 -2.33876,2.739692 -0.9355,1.470078 -1.40326,3.0738 l -7.88496,27.46374 -0.13365,0.60139 q -0.0668,0.20047 -0.0668,0.53457 z"
         transform="translate(52.857143,3.571429)" />
      <path
         inkscape:connector-curvature="0"
         id="path4151-1"
         d="m 42.287109,82.761719 -12.714843,44.433591 26.662109,0 c 1.336434,0 2.516416,-0.11124 3.541016,-0.33398 1.0246,-0.26729 1.938373,-0.66856 2.740234,-1.20313 0.846409,-0.57913 1.581409,-1.29226 2.205078,-2.13867 0.668218,-0.89095 1.291973,-1.93783 1.871094,-3.14062 l 0.535156,-1.13672 0.847656,-2.92969 -25.6875,-33.550781 z"
         style="font-style:italic;font-variant:normal;font-weight:normal;font-stretch:normal;font-size:66.82174683px;line-height:125%;font-family:'Nightwraith Italic';-inkscape-font-specification:'Nightwraith Italic, Italic';letter-spacing:0px;word-spacing:0px;fill:#d45500;fill-opacity:1;stroke:none;stroke-width:1px;stroke-linecap:butt;stroke-linejoin:miter;stroke-opacity:1" />
      <path
         id="rect4195"
         d="m 80.328972,84.126465 3.330719,0 c 0.828629,0 1.49572,0.667091 1.49572,1.49572 l 0,40.055845 c 0,0.82863 -0.667091,1.49572 -1.49572,1.49572 l -3.330719,0 c -0.828629,0 -1.49572,-0.66709 -1.49572,-1.49572 l 0,-40.055845 c 0,-0.828629 0.667091,-1.49572 1.49572,-1.49572 z"
         style="opacity:1;fill:#1a1a1a;fill-opacity:1;stroke:none;stroke-width:3;stroke-linecap:square;stroke-linejoin:miter;stroke-miterlimit:4;stroke-dasharray:none;stroke-dashoffset:0;stroke-opacity:1"
         transform="matrix(1,0,-0.27563736,0.9612617,0,0)"
         inkscape:connector-curvature="0" />
      <path
         d="m 143.31627,144.9658 7.4692,0 q 3.03979,0 4.34612,0.89465 1.30634,0.89466 0.90562,2.69543 -0.36754,1.65167 -1.93831,2.85601 -1.55374,1.19288 -3.70879,1.44521 1.72346,0.32116 2.41928,1.22728 0.69583,0.90613 0.35892,2.42016 -0.57429,2.58074 -3.32601,4.08329 -2.73724,1.50256 -6.92057,1.50256 l -7.62843,0 8.02297,-17.12459 z m -1.28157,8.94654 -2.9305,6.27405 4.70443,0 q 2.64896,0 4.2964,-0.96348 1.64744,-0.96347 2.03795,-2.71837 0.30118,-1.35345 -0.51635,-1.97282 -0.80306,-0.61938 -2.90196,-0.61938 l -4.68997,0 z m 3.2897,-7.04253 -2.42238,5.16146 4.35704,0 q 2.3305,0 3.81193,-0.80289 1.49592,-0.8029 1.81241,-2.22516 0.24758,-1.11259 -0.52311,-1.61726 -0.76813,-0.51615 -2.7078,-0.51615 l -4.32809,0 z"
         style="font-style:italic;font-variant:normal;font-weight:normal;font-stretch:normal;font-size:medium;line-height:125%;font-family:sans-serif;-inkscape-font-specification:'sans-serif Italic';letter-spacing:1.99236596px;word-spacing:0px;fill:#ffffff;fill-opacity:1;stroke:#ffffff;stroke-width:1.23309207;stroke-linecap:square;stroke-linejoin:miter;stroke-miterlimit:4;stroke-dasharray:none;stroke-opacity:1"
         id="path4194"
         inkscape:connector-curvature="0" />
      <path
         d="m 165.45787,144.9658 2.93846,0 -4.86263,10.40322 q -0.31492,0.69966 -0.48939,1.15846 -0.15739,0.44732 -0.23397,0.79142 -0.35222,1.58285 0.57859,2.40869 0.93337,0.81436 3.09018,0.81436 2.79371,0 4.6131,-1.21581 1.83388,-1.21581 3.10975,-3.95712 l 4.86263,-10.40322 2.93846,0 -4.98434,10.68997 q -1.62485,3.46391 -4.38079,5.11558 -2.75594,1.65167 -6.91033,1.65167 -3.24244,0 -4.85283,-1.28464 -1.59336,-1.29609 -1.10075,-3.50979 0.0893,-0.40144 0.27143,-0.89465 0.18465,-0.50468 0.45705,-1.07817 l 4.95539,-10.68997 z"
         style="font-style:italic;font-variant:normal;font-weight:normal;font-stretch:normal;font-size:medium;line-height:125%;font-family:sans-serif;-inkscape-font-specification:'sans-serif Italic';letter-spacing:1.99236596px;word-spacing:0px;fill:#ffffff;fill-opacity:1;stroke:#ffffff;stroke-width:1.23309207;stroke-linecap:square;stroke-linejoin:miter;stroke-miterlimit:4;stroke-dasharray:none;stroke-opacity:1"
         id="path4196"
         inkscape:connector-curvature="0" />
      <path
         d="m 189.82865,144.9658 2.93846,0 -8.02296,17.12459 -2.93846,0 8.02296,-17.12459 z"
         style="font-style:italic;font-variant:normal;font-weight:normal;font-stretch:normal;font-size:medium;line-height:125%;font-family:sans-serif;-inkscape-font-specification:'sans-serif Italic';letter-spacing:1.99236596px;word-spacing:0px;fill:#ffffff;fill-opacity:1;stroke:#ffffff;stroke-width:1.23309207;stroke-linecap:square;stroke-linejoin:miter;stroke-miterlimit:4;stroke-dasharray:none;stroke-opacity:1"
         id="path4198"
         inkscape:connector-curvature="0" />
      <path
         d="m 200.78092,144.9658 2.93847,0 -7.08754,15.19765 10.52346,0 -0.90648,1.92694 -13.46193,0 7.99402,-17.12459 z"
         style="font-style:italic;font-variant:normal;font-weight:normal;font-stretch:normal;font-size:medium;line-height:125%;font-family:sans-serif;-inkscape-font-specification:'sans-serif Italic';letter-spacing:1.99236596px;word-spacing:0px;fill:#ffffff;fill-opacity:1;stroke:#ffffff;stroke-width:1.23309207;stroke-linecap:square;stroke-linejoin:miter;stroke-miterlimit:4;stroke-dasharray:none;stroke-opacity:1"
         id="path4200"
         inkscape:connector-curvature="0" />
      <path
         d="m 214.26635,144.9658 18.28218,0 -0.89711,1.94989 -7.71528,0 -7.08243,15.1747 -2.93846,0 7.08243,-15.1747 -7.64291,0 0.91158,-1.94989 z"
         style="font-style:italic;font-variant:normal;font-weight:normal;font-stretch:normal;font-size:medium;line-height:125%;font-family:sans-serif;-inkscape-font-specification:'sans-serif Italic';letter-spacing:1.99236596px;word-spacing:0px;fill:#ffffff;fill-opacity:1;stroke:#ffffff;stroke-width:1.23309207;stroke-linecap:square;stroke-linejoin:miter;stroke-miterlimit:4;stroke-dasharray:none;stroke-opacity:1"
         id="path4202"
         inkscape:connector-curvature="0" />
      <path
         d="m 246.30354,144.9658 18.28218,0 -0.89712,1.94989 -7.71527,0 -7.08243,15.1747 -2.93847,0 7.08243,-15.1747 -7.6429,0 0.91158,-1.94989 z"
         style="font-style:italic;font-variant:normal;font-weight:normal;font-stretch:normal;font-size:medium;line-height:125%;font-family:sans-serif;-inkscape-font-specification:'sans-serif Italic';letter-spacing:1.99236596px;word-spacing:0px;fill:#ffffff;fill-opacity:1;stroke:#ffffff;stroke-width:1.23309207;stroke-linecap:square;stroke-linejoin:miter;stroke-miterlimit:4;stroke-dasharray:none;stroke-opacity:1"
         id="path4204"
         inkscape:connector-curvature="0" />
      <path
         d="m 278.08335,146.53718 q -2.40288,0 -4.44798,0.92906 -2.04253,0.91759 -3.82434,2.81014 -1.13652,1.20434 -1.90089,2.55778 -0.74992,1.35346 -1.05621,2.72985 -0.53089,2.38574 0.61374,3.68184 1.15911,1.2961 3.79359,1.2961 2.37393,0 4.4335,-0.92906 2.07659,-0.94053 3.80476,-2.78719 1.15865,-1.23875 1.92304,-2.59221 0.76693,-1.36491 1.06811,-2.71837 0.52833,-2.37427 -0.63076,-3.67037 -1.15655,-1.30757 -3.77656,-1.30757 z m -7.32753,15.88584 q -3.98067,0 -5.85172,-1.86959 -1.85657,-1.86961 -1.13425,-5.11559 0.41349,-1.85813 1.72782,-3.79654 1.32881,-1.93843 3.22905,-3.45245 2.23396,-1.77784 4.68607,-2.64956 2.45467,-0.88318 5.176,-0.88318 3.96619,0 5.83979,1.85813 1.87616,1.84666 1.16405,5.04676 -0.43901,1.97283 -1.73122,3.87684 -1.2922,1.904 -3.258,3.45245 -2.25099,1.7893 -4.68862,2.66101 -2.42315,0.87172 -5.15897,0.87172 z"
         style="font-style:italic;font-variant:normal;font-weight:normal;font-stretch:normal;font-size:medium;line-height:125%;font-family:sans-serif;-inkscape-font-specification:'sans-serif Italic';letter-spacing:1.99236596px;word-spacing:0px;fill:#ffffff;fill-opacity:1;stroke:#ffffff;stroke-width:1.23309207;stroke-linecap:square;stroke-linejoin:miter;stroke-miterlimit:4;stroke-dasharray:none;stroke-opacity:1"
         id="path4206"
         inkscape:connector-curvature="0" />
      <path
         d="m 309.20696,146.86981 -2.82923,6.07906 3.76355,0 q 2.2147,0 3.78978,-0.96347 1.59208,-0.97495 1.9392,-2.53486 0.27821,-1.25022 -0.50016,-1.91547 -0.7639,-0.66526 -2.48644,-0.66526 l -3.6767,0 z m 3.81335,6.99664 q 0.88812,0.17205 1.34549,0.84878 0.47185,0.67673 0.83324,2.69543 l 0.79699,4.67973 -3.08322,0 -0.71604,-4.39298 q -0.27364,-1.69754 -1.00006,-2.27104 -0.72641,-0.57349 -2.49238,-0.57349 l -3.22797,0 -3.39099,7.23751 -2.93847,0 8.02297,-17.12459 6.58621,0 q 2.99636,0 4.34871,1.07817 1.36938,1.0667 0.92016,3.08541 -0.39817,1.78931 -2.0498,3.09688 -1.65164,1.30757 -3.95484,1.64019 z"
         style="font-style:italic;font-variant:normal;font-weight:normal;font-stretch:normal;font-size:medium;line-height:125%;font-family:sans-serif;-inkscape-font-specification:'sans-serif Italic';letter-spacing:1.99236596px;word-spacing:0px;fill:#ffffff;fill-opacity:1;stroke:#ffffff;stroke-width:1.23309207;stroke-linecap:square;stroke-linejoin:miter;stroke-miterlimit:4;stroke-dasharray:none;stroke-opacity:1"
         id="path4208"
         inkscape:connector-curvature="0" />
      <path
         d="m 338.18249,146.53718 q -2.40288,0 -4.44798,0.92906 -2.04253,0.91759 -3.82434,2.81014 -1.13651,1.20434 -1.9009,2.55778 -0.74991,1.35346 -1.05619,2.72985 -0.5309,2.38574 0.61373,3.68184 1.1591,1.2961 3.79359,1.2961 2.37394,0 4.4335,-0.92906 2.07659,-0.94053 3.80477,-2.78719 1.15864,-1.23875 1.92302,-2.59221 0.76694,-1.36491 1.06812,-2.71837 0.52834,-2.37427 -0.63076,-3.67037 -1.15656,-1.30757 -3.77656,-1.30757 z m -7.32752,15.88584 q -3.98068,0 -5.85173,-1.86959 -1.85657,-1.86961 -1.13425,-5.11559 0.41349,-1.85813 1.72782,-3.79654 1.32881,-1.93843 3.22905,-3.45245 2.23396,-1.77784 4.68607,-2.64956 2.45466,-0.88318 5.176,-0.88318 3.9662,0 5.8398,1.85813 1.87615,1.84666 1.16404,5.04676 -0.43901,1.97283 -1.73122,3.87684 -1.2922,1.904 -3.25799,3.45245 -2.251,1.7893 -4.68863,2.66101 -2.42315,0.87172 -5.15896,0.87172 z"
         style="font-style:italic;font-variant:normal;font-weight:normal;font-stretch:normal;font-size:medium;line-height:125%;font-family:sans-serif;-inkscape-font-specification:'sans-serif Italic';letter-spacing:1.99236596px;word-spacing:0px;fill:#ffffff;fill-opacity:1;stroke:#ffffff;stroke-width:1.23309207;stroke-linecap:square;stroke-linejoin:miter;stroke-miterlimit:4;stroke-dasharray:none;stroke-opacity:1"
         id="path4210"
         inkscape:connector-curvature="0" />
      <path
         d="m 355.56403,144.9658 2.93846,0 -7.08754,15.19765 10.52346,0 -0.90648,1.92694 -13.46193,0 7.99403,-17.12459 z"
         style="font-style:italic;font-variant:normal;font-weight:normal;font-stretch:normal;font-size:medium;line-height:125%;font-family:sans-serif;-inkscape-font-specification:'sans-serif Italic';letter-spacing:1.99236596px;word-spacing:0px;fill:#ffffff;fill-opacity:1;stroke:#ffffff;stroke-width:1.23309207;stroke-linecap:square;stroke-linejoin:miter;stroke-miterlimit:4;stroke-dasharray:none;stroke-opacity:1"
         id="path4212"
         inkscape:connector-curvature="0" />
      <path
         d="m 374.30395,144.9658 2.93846,0 -7.08753,15.19765 10.52346,0 -0.90648,1.92694 -13.46192,0 7.99401,-17.12459 z"
         style="font-style:italic;font-variant:normal;font-weight:normal;font-stretch:normal;font-size:medium;line-height:125%;font-family:sans-serif;-inkscape-font-specification:'sans-serif Italic';letter-spacing:1.99236596px;word-spacing:0px;fill:#ffffff;fill-opacity:1;stroke:#ffffff;stroke-width:1.23309207;stroke-linecap:square;stroke-linejoin:miter;stroke-miterlimit:4;stroke-dasharray:none;stroke-opacity:1"
         id="path4214"
         inkscape:connector-curvature="0" />
      <path
         id="rect4169"
         d="m 194.59691,159.56187 9.80229,0 0,20.12606 -9.80229,0 z"
         style="opacity:1;fill:#d45500;fill-opacity:1;stroke:none;stroke-width:2;stroke-linecap:square;stroke-linejoin:miter;stroke-miterlimit:4;stroke-dasharray:none;stroke-dashoffset:0;stroke-opacity:1"
         transform="matrix(1,0,-0.4252551,0.90507353,0,0)"
         inkscape:connector-curvature="0" />
    </g>
  </g>
  <g
     inkscape:groupmode="layer"
     id="layer3"
     inkscape:label="Tyre types"
     sodipodi:insensitive="true">
    <text
       xml:space="preserve"
       style="font-style:normal;font-weight:normal;font-size:42.80128479px;line-height:125%;font-family:sans-serif;letter-spacing:0px;word-spacing:0px;fill:#000000;fill-opacity:1;stroke:#b3b3b3;stroke-width:2;stroke-linecap:butt;stroke-linejoin:miter;stroke-miterlimit:4;stroke-dasharray:none;stroke-opacity:1"
       x="76.197556"
       y="380.89838"
       id="text4157"
       sodipodi:linespacing="125%"
       transform="matrix(1.1219414,0,-0.19782854,0.89131215,0,0)"><tspan
         sodipodi:role="line"
         id="tspan4159"
         x="76.197556"
         y="380.89838"
         style="font-style:italic;font-variant:normal;font-weight:normal;font-stretch:normal;font-family:sans-serif;-inkscape-font-specification:'sans-serif Italic';letter-spacing:3.23149586px;fill:#b3b3b3;stroke:#b3b3b3;stroke-width:2;stroke-linecap:square;stroke-miterlimit:4;stroke-dasharray:none;stroke-opacity:1">CORIEZA</tspan></text>
    <text
       transform="matrix(1.1219414,0,-0.19782854,0.89131215,0,0)"
       sodipodi:linespacing="125%"
       id="text4161"
       y="380.89838"
       x="303.48215"
       style="font-style:normal;font-weight:normal;font-size:42.80128479px;line-height:125%;font-family:sans-serif;letter-spacing:0px;word-spacing:0px;fill:#000000;fill-opacity:1;stroke:#b3b3b3;stroke-width:2;stroke-linecap:butt;stroke-linejoin:miter;stroke-miterlimit:4;stroke-dasharray:none;stroke-opacity:1"
       xml:space="preserve"><tspan
         style="font-style:italic;font-variant:normal;font-weight:normal;font-stretch:normal;font-family:sans-serif;-inkscape-font-specification:'sans-serif Italic';letter-spacing:3.23149586px;fill:#b3b3b3;stroke:#b3b3b3;stroke-width:2;stroke-linecap:square;stroke-miterlimit:4;stroke-dasharray:none;stroke-opacity:1"
         y="380.89838"
         x="303.48215"
         id="tspan4163"
         sodipodi:role="line">HUMIDO</tspan></text>
  </g>
</svg>
