<?xml version="1.0" encoding="UTF-8" standalone="no"?>
<!-- Created with Inkscape (http://www.inkscape.org/) -->

<svg
   xmlns:dc="http://purl.org/dc/elements/1.1/"
   xmlns:cc="http://creativecommons.org/ns#"
   xmlns:rdf="http://www.w3.org/1999/02/22-rdf-syntax-ns#"
   xmlns:svg="http://www.w3.org/2000/svg"
   xmlns="http://www.w3.org/2000/svg"
   xmlns:sodipodi="http://sodipodi.sourceforge.net/DTD/sodipodi-0.dtd"
   xmlns:inkscape="http://www.inkscape.org/namespaces/inkscape"
   width="512"
   height="512"
   viewBox="0 0 512.00001 512.00001"
   id="svg4257"
   version="1.1"
   inkscape:version="0.91 r13725"
   sodipodi:docname="Hgh Tear.svg"
   inkscape:export-filename="D:\Raphaël Schaffo\Desktop\Hgh Tear.png"
   inkscape:export-xdpi="90"
   inkscape:export-ydpi="90">
  <defs
     id="defs4259">
    <inkscape:path-effect
       effect="envelope"
       id="path-effect4165"
       is_visible="true"
       yy="false"
       xx="false"
       bendpath1="m 88.497422,145.59206 304.648128,0"
       bendpath2="m 393.14555,145.59206 0,32.32"
       bendpath3="m 88.497422,177.91206 304.648128,0"
       bendpath4="m 88.497422,145.59206 0,32.32" />
  </defs>
  <sodipodi:namedview
     id="base"
     pagecolor="#ffffff"
     bordercolor="#666666"
     borderopacity="1.0"
     inkscape:pageopacity="0.0"
     inkscape:pageshadow="2"
     inkscape:zoom="1.5317814"
     inkscape:cx="149.04939"
     inkscape:cy="254.47125"
     inkscape:document-units="px"
     inkscape:current-layer="layer3"
     showgrid="false"
     units="px"
     inkscape:window-width="1920"
     inkscape:window-height="1017"
     inkscape:window-x="-8"
     inkscape:window-y="-8"
     inkscape:window-maximized="1"
     inkscape:snap-bbox="true"
     inkscape:bbox-paths="true"
     inkscape:bbox-nodes="true"
     inkscape:snap-bbox-edge-midpoints="true"
     inkscape:snap-bbox-midpoints="true"
     inkscape:object-paths="true"
     inkscape:snap-intersection-paths="true"
     inkscape:object-nodes="true"
     inkscape:snap-smooth-nodes="true"
     inkscape:snap-midpoints="true"
     inkscape:snap-object-midpoints="true"
     inkscape:snap-center="true"
     inkscape:snap-text-baseline="true"
     inkscape:snap-page="true"
     inkscape:snap-global="true"
     showguides="true"
     inkscape:guide-bbox="true">
    <sodipodi:guide
       position="128,128"
       orientation="0,1"
       id="guide4275"
       inkscape:label=""
       inkscape:color="rgb(0,0,255)" />
    <sodipodi:guide
       position="924.4905,256"
       orientation="0,1"
       id="guide4277"
       inkscape:label=""
       inkscape:color="rgb(0,0,255)" />
    <sodipodi:guide
       position="911.38749,384.00001"
       orientation="0,1"
       id="guide4279"
       inkscape:label=""
       inkscape:color="rgb(0,0,255)" />
    <sodipodi:guide
       position="256,786.1809"
       orientation="1,0"
       id="guide4281"
       inkscape:label=""
       inkscape:color="rgb(0,0,255)" />
  </sodipodi:namedview>
  <metadata
     id="metadata4262">
    <rdf:RDF>
      <cc:Work
         rdf:about="">
        <dc:format>image/svg+xml</dc:format>
        <dc:type
           rdf:resource="http://purl.org/dc/dcmitype/StillImage" />
        <dc:title />
      </cc:Work>
    </rdf:RDF>
  </metadata>
  <g
     inkscape:label="Background"
     inkscape:groupmode="layer"
     id="layer1"
     transform="translate(0,-540.36216)"
     sodipodi:insensitive="true">
    <rect
       style="opacity:1;fill:#1a1a1a;fill-opacity:1;stroke:none;stroke-width:1.39999998;stroke-linecap:round;stroke-linejoin:round;stroke-miterlimit:4;stroke-dasharray:none;stroke-dashoffset:0;stroke-opacity:1"
       id="rect4134"
       width="512"
       height="511.99997"
       x="0"
       y="540.36218" />
  </g>
  <g
     inkscape:groupmode="layer"
     id="layer2"
     inkscape:label="Main Logo"
     sodipodi:insensitive="true">
    <rect
       style="opacity:1;fill:#023f7e;fill-opacity:1;stroke:none;stroke-width:0.60000002;stroke-linecap:square;stroke-linejoin:miter;stroke-miterlimit:4;stroke-dasharray:none;stroke-dashoffset:0;stroke-opacity:1"
       id="rect4283"
       width="512"
       height="256"
       x="4.6629367e-014"
       y="-5.4984259e-014" />
    <g
       id="g4307"
       transform="matrix(2,0,0,2.0000001,0,-21.928884)">
      <rect
         y="78.144623"
         x="11.010172"
         height="0.90993112"
         width="92.062332"
         id="rect4285"
         style="opacity:1;fill:#ffff00;fill-opacity:1;stroke:none;stroke-width:0.60000002;stroke-linecap:square;stroke-linejoin:miter;stroke-miterlimit:4;stroke-dasharray:none;stroke-dashoffset:0;stroke-opacity:1" />
      <rect
         style="opacity:1;fill:#ffff00;fill-opacity:1;stroke:none;stroke-width:0.60000002;stroke-linecap:square;stroke-linejoin:miter;stroke-miterlimit:4;stroke-dasharray:none;stroke-dashoffset:0;stroke-opacity:1"
         id="rect4287"
         width="88.716553"
         height="0.90993112"
         x="152.81967"
         y="78.144623" />
      <g
         id="flowRoot4139"
         style="font-style:normal;font-weight:normal;font-size:40px;line-height:125%;font-family:sans-serif;letter-spacing:0px;word-spacing:0px;fill:#000000;fill-opacity:1;stroke:none;stroke-width:1px;stroke-linecap:butt;stroke-linejoin:miter;stroke-opacity:1"
         transform="matrix(0.65433198,0,0,0.65433198,-41.480071,-42.2886)">
        <g
           id="g4271">
          <path
             id="path4162"
             style="font-style:normal;font-variant:normal;font-weight:normal;font-stretch:normal;font-family:PhattPhreddy;-inkscape-font-specification:PhattPhreddy;letter-spacing:5.3399992px;fill:#ffff00"
             d="m 429.75924,177.59206 -15.36,0 -1.05542,-5.8 -4.2,0 -2.70458,5.8 -11.76,0 14.5861,-31.28 17.72,0 c 4.08,0 6.93729,1.10667 8.57186,3.32 1.78573,2.34667 1.7584,5.49333 -0.082,9.44 -1.80305,3.86667 -4.63127,6.98667 -8.48464,9.36 -0.0391,0.0267 -0.11112,0.0667 -0.21595,0.12 l 2.98458,9.04 z m -8.65822,-13.6 4.60712,-9.88 c 0.39791,-0.85333 0.37365,-1.57333 -0.0728,-2.16 -0.41977,-0.58667 -1.06965,-0.88 -1.94965,-0.88 l -4.88,0 -7.44227,15.96 4.64,0 c 2.45333,0 4.15252,-1.01333 5.09757,-3.04 z m -33.20949,13.52 -12.92,0 0.63084,-3.24 -12.32,0 -2.75084,3.24 -5.08,0 26.41802,-31.52 8.12,0 z m -11.35223,-8.08 1.54911,-12.04 -10.74911,12.04 z m -27.52089,8.08 -23,0 14.69802,-31.52 22.2,0 -2.23828,4.8 -8.32,0 -3.71181,7.96 8.32,0 -2.23827,4.8 -8.32,0 -4.27138,9.16 9.12,0 z m -17.87214,-26.72 -7.745,0 -12.45974,26.72 -11.255,0 12.45974,-26.72 -9.08,0 2.23828,-4.8 28.08,0 z m -107.78849,26.72 -13.84,0 6.50966,-13.96 -8.36,0 -6.50966,13.96 -13.88,0 14.69802,-31.52 13.88,0 -5.95009,12.76 8.36,0 5.95009,-12.76 13.84,0 z m -42.64757,-4.64 c -0.0267,0 -0.51903,0.22667 -1.47709,0.68 -6.3154,2.90667 -8.4331,4.36 -14.3531,4.36 -4.72,0 -8.17031,-1.49333 -10.35094,-4.48 -2.26602,-3.14667 -2.3172,-7.04 -0.15353,-11.68 2.08906,-4.48 5.69301,-8.32 10.81186,-11.52 4.96245,-3.09333 9.88367,-4.64 14.76367,-4.64 3.94667,0 7.32471,0.73333 10.13412,2.2 l -3.85175,4.4 c -1.84388,-0.90667 -3.87781,-1.32 -6.10178,-1.24 -3.23551,0.13333 -5.475,1.53333 -6.71849,4.2 l -7.42362,15.92 c -0.63417,1.36 1.28887,2.04 2.67554,2.04 1.41333,0 4.73907,-0.76135 5.52446,-2.04 l 6.30448,-13.52 7.36,0 z m -42.67805,4.64 -13.88,0 14.69802,-31.52 13.88,0 z m -20.80375,0 -13.84,0 6.50966,-13.96 -8.36,0 -6.509659,13.96 -13.879998,0 14.698018,-31.52 13.879999,0 -5.95009,12.76 8.36,0 5.95009,-12.76 13.84,0 z"
             inkscape:connector-curvature="0"
             sodipodi:nodetypes="cccccccscscccccscsccsccccccccccccccccccccccccccccccccccccccccccccccccccccscscscccssssccccccccccccccccccccc" />
          <path
             inkscape:connector-curvature="0"
             style="color:#000000;font-style:normal;font-variant:normal;font-weight:normal;font-stretch:normal;font-size:medium;line-height:125%;font-family:sans-serif;text-indent:0;text-align:start;text-decoration:none;text-decoration-line:none;text-decoration-style:solid;text-decoration-color:#000000;letter-spacing:0px;word-spacing:0px;text-transform:none;direction:ltr;block-progression:tb;writing-mode:lr-tb;baseline-shift:baseline;text-anchor:start;white-space:normal;clip-rule:nonzero;display:inline;overflow:visible;visibility:visible;opacity:1;isolation:auto;mix-blend-mode:normal;color-interpolation:sRGB;color-interpolation-filters:linearRGB;solid-color:#000000;solid-opacity:1;fill:#ffff00;fill-opacity:1;fill-rule:nonzero;stroke:#ffff00;stroke-width:0.38206905;stroke-linecap:square;stroke-linejoin:miter;stroke-miterlimit:4;stroke-dasharray:none;stroke-dashoffset:0;stroke-opacity:1;color-rendering:auto;image-rendering:auto;shape-rendering:auto;text-rendering:auto;enable-background:accumulate"
             d="m 289.22966,134.20396 c -23.37799,9.87731 -41.80293,30.3016 -48.2207,56.46875 l 0.94531,0 c 6.34498,-25.57127 24.27806,-45.57705 47.06836,-55.40234 l 0.20703,-1.06641 z m -0.96094,4.96094 c -20.69181,9.62699 -36.92525,28.08589 -42.99023,51.50781 l 0.89648,0 c 5.98645,-22.8515 21.76186,-40.90078 41.89063,-50.46093 l 0.20312,-1.04688 z m -0.93554,4.82813 c -18.12731,9.29743 -32.27968,25.88211 -37.97071,46.67968 l 0.85352,0 c 5.60639,-20.25094 19.32951,-36.43424 36.91797,-45.64843 l 0.19922,-1.03125 z m -0.91602,4.73046 c -15.68237,8.88768 -27.90123,23.65695 -33.18945,41.94922 l 0.81055,0 c 5.1966,-17.76661 17.01614,-32.14304 32.18164,-40.92968 l 0.19726,-1.01954 z m -0.90429,4.66797 c -13.343,8.38651 -23.72389,21.39821 -28.58008,37.28125 l 0.78515,0 c 4.75783,-15.37453 14.75236,-28.00537 27.59961,-36.26953 l 0.19532,-1.01172 z m -0.9004,4.64258 c -11.10562,7.78405 -19.75063,19.07813 -24.13867,32.63867 l 0.74219,0 c 4.28083,-13.07139 12.56712,-23.99219 23.20117,-31.63086 l 0.19531,-1.00781 z m -0.90234,4.66211 c -8.97174,7.06643 -15.99865,16.6602 -19.875,27.97656 l 0.70898,0 c 3.75889,-10.84083 10.44671,-20.0696 18.96876,-26.96289 l 0.19726,-1.01367 z"
             id="circle4229" />
        </g>
      </g>
      <text
         sodipodi:linespacing="125%"
         id="text4289"
         y="104.45227"
         x="141.13319"
         style="font-style:italic;font-variant:normal;font-weight:normal;font-stretch:normal;font-size:23.06941605px;line-height:125%;font-family:Carlito;-inkscape-font-specification:'Carlito Italic';letter-spacing:0px;word-spacing:0px;fill:#ffff00;fill-opacity:1;stroke:none;stroke-width:1px;stroke-linecap:butt;stroke-linejoin:miter;stroke-opacity:1"
         xml:space="preserve"
         transform="matrix(1,0,-0.17632698,1,0,0)"><tspan
           style="font-style:italic;font-variant:normal;font-weight:normal;font-stretch:normal;font-family:Carlito;-inkscape-font-specification:'Carlito Italic';text-align:center;text-anchor:middle"
           y="104.45227"
           x="141.13319"
           id="tspan4291"
           sodipodi:role="line"
           rotate="0 0 0 0 0 0 0 0 0 0 0 0 0 0 0 0 0">MADE  FOR  MILES</tspan></text>
    </g>
    <g
       transform="matrix(1,0,-0.46630766,1,0,0)"
       style="font-style:normal;font-weight:normal;font-size:40px;line-height:125%;font-family:sans-serif;letter-spacing:5px;word-spacing:0px;fill:#ffff00;fill-opacity:1;stroke:none;stroke-width:1px;stroke-linecap:butt;stroke-linejoin:miter;stroke-opacity:1"
       id="text4317">
      <flowRoot
         xml:space="preserve"
         id="flowRoot4165"
         style="font-style:normal;font-weight:normal;font-size:40px;line-height:125%;font-family:sans-serif;letter-spacing:0px;word-spacing:0px;fill:#000000;fill-opacity:1;stroke:none;stroke-width:1px;stroke-linecap:butt;stroke-linejoin:miter;stroke-opacity:1"
         transform="matrix(1,0,0.46630766,1,0,0)"><flowRegion
           id="flowRegion4167"><rect
             id="rect4169"
             width="139.05379"
             height="47.656933"
             x="323.806"
             y="313.53827" /></flowRegion><flowPara
           id="flowPara4171">SPEEDO</flowPara></flowRoot>    </g>
  </g>
  <g
     inkscape:groupmode="layer"
     id="layer3"
     inkscape:label="Tyre types">
    <g
       transform="matrix(1,0,-0.46630766,1,-3.3601211e-7,0)"
       style="font-style:normal;font-weight:normal;font-size:40px;line-height:125%;font-family:sans-serif;letter-spacing:5px;word-spacing:0px;fill:#ffff00;fill-opacity:1;stroke:none;stroke-width:1px;stroke-linecap:butt;stroke-linejoin:miter;stroke-opacity:1"
       id="g4409">
      <path
         inkscape:connector-curvature="0"
         id="path4357"
         d="m 379.86794,334.20382 -23,0 0,-31.52 22.2,0 0,4.8 -10.32,0 0,7.96 10.32,0 0,4.8 -10.32,0 0,9.16 11.12,0 z"
         style="font-style:normal;font-variant:normal;font-weight:normal;font-stretch:normal;font-family:PhattPhreddy;-inkscape-font-specification:PhattPhreddy;letter-spacing:5px;fill:#ffff00;fill-opacity:1" />
      <path
         inkscape:connector-curvature="0"
         id="path4355"
         d="m 348.93562,329.56382 c -0.0267,0 -0.41333,0.22667 -1.16,0.68 -4.96,2.90667 -6.4,4.36 -12.32,4.36 -4.72,0 -8.86667,-1.49333 -12.44,-4.48 -3.73333,-3.14667 -5.6,-7.04 -5.6,-11.68 0,-4.48 1.81333,-8.32 5.44,-11.52 3.52,-3.09333 7.72,-4.64 12.6,-4.64 3.94667,0 7.66667,0.73333 11.16,2.2 l -1.8,4.4 c -2.26667,-0.90667 -4.49333,-1.32 -6.68,-1.24 -3.17333,0.13333 -4.76,1.53333 -4.76,4.2 l 0,15.92 c 0,1.36 2.41454,2.26748 3.80121,2.26748 1.41333,0 4.61031,-0.83761 4.39879,-2.26748 l 0,-13.52 7.36,0 z"
         style="font-style:normal;font-variant:normal;font-weight:normal;font-stretch:normal;font-family:PhattPhreddy;-inkscape-font-specification:PhattPhreddy;letter-spacing:5px;fill:#ffff00;fill-opacity:1" />
      <path
         inkscape:connector-curvature="0"
         d="m 300.09661,326.16442 -0.38028,-14.85524 c -0.0993,-3.87915 -4.66657,-3.78536 -6.0799,-3.78536 l -3.36,0 0,21.88 3.64,0 c 1.22667,-0.13333 6.26738,0.16677 6.18018,-3.2394 z m 11.01982,-7.7206 c 0,5.17333 -1.58667,9.13333 -4.76,11.88 -2.98667,2.58667 -7.05333,3.88 -12.2,3.88 l -13.76,0 0,-31.52 12.68,0 c 5.46667,0 9.74667,1.21333 12.84,3.64 3.46667,2.72 5.2,6.76 5.2,12.12 z"
         style="font-style:normal;font-variant:normal;font-weight:normal;font-stretch:normal;font-family:PhattPhreddy;-inkscape-font-specification:PhattPhreddy;letter-spacing:5px;fill:#ffff00;fill-opacity:1"
         id="path4351" />
      <path
         inkscape:connector-curvature="0"
         id="path4349"
         d="m 269.93477,334.20382 -11.88,0 0,-31.52 11.88,0 z"
         style="font-style:normal;font-variant:normal;font-weight:normal;font-stretch:normal;font-family:PhattPhreddy;-inkscape-font-specification:PhattPhreddy;letter-spacing:5px;fill:#ffff00;fill-opacity:1" />
      <path
         inkscape:connector-curvature="0"
         d="m 239.30391,319.3109 c 1.22792,-1.96729 1.18553,-5.22755 1.07634,-7.0994 -0.10918,-1.87186 -1.63758,-4.4157 -5.53952,-4.4157 l -1.94965,0 -0.88,0 -0.94752,13.92802 0.64,0 c 3.67298,-0.40705 6.37243,-0.44564 7.60035,-2.41292 z m 12.01222,14.97292 -11.36,0 -3.76,-5.8 -4.2,0 0,5.8 -9.76,0 0,-31.28 11.72,0 c 4.08,0 7.45333,1.10667 10.12,3.32 2.88,2.34667 4.32,5.49333 4.32,9.44 0,3.86667 -1.37333,6.98667 -4.12,9.36 -0.0267,0.0267 -0.08,0.0667 -0.16,0.12 z"
         style="font-style:normal;font-variant:normal;font-weight:normal;font-stretch:normal;font-family:PhattPhreddy;-inkscape-font-specification:PhattPhreddy;letter-spacing:5px;fill:#ffff00;fill-opacity:1"
         id="path4345" />
      <path
         inkscape:connector-curvature="0"
         d="m 201.28719,324.64382 c 0,-1.16 -0.27719,-1.98002 -1.34164,-3.1377 -1.06445,-1.15768 -2.69836,-1.6623 -3.73836,-1.6623 l -1.36,0 0,9.56 1.44,0 c 1.01333,0 3.78667,-0.57333 4.32,-1.72 0.45333,-0.88 0.68,-1.88 0.68,-3.04 z m -0.2,-13.4 c 0,-0.90667 -0.24703,-1.5356 -0.95792,-2.55868 -0.71089,-1.02308 -2.54875,-1.16132 -3.32208,-1.16132 l -1.96,0 0,7.48 c 0.18667,0 0.49345,-0.04 0.96,-0.04 l 3,0 c 0.77333,0 1.37333,-0.44 1.8,-1.32 0.32,-0.69333 0.48,-1.49333 0.48,-2.4 z m 12.32,13.2 c 0,3.12 -1.49333,5.6 -4.48,7.44 -2.53333,1.54667 -5.88,2.32 -10.04,2.32 l -13.88,0 0,-31.52 13,0 c 3.52,0 6.50667,0.70667 8.96,2.12 2.93333,1.70667 4.4,3.88 4.4,6.52 0,2.13333 -0.90667,4 -2.72,5.6 3.17333,1.97333 4.76,4.48 4.76,7.52 z"
         style="font-style:normal;font-variant:normal;font-weight:normal;font-stretch:normal;font-family:PhattPhreddy;-inkscape-font-specification:PhattPhreddy;letter-spacing:5px;fill:#ffff00;fill-opacity:1"
         id="path4332" />
    </g>
    <g
       style="font-style:normal;font-weight:normal;font-size:40px;line-height:125%;font-family:sans-serif;letter-spacing:5px;word-spacing:0px;fill:#ffff00;fill-opacity:1;stroke:none;stroke-width:1px;stroke-linecap:butt;stroke-linejoin:miter;stroke-opacity:1"
       id="g4401"
       transform="matrix(1.0541328,0,-0.4915502,1.0541328,-31.915531,0.87953)">
      <path
         inkscape:connector-curvature="0"
         id="path4362"
         style="font-style:normal;font-variant:normal;font-weight:normal;font-stretch:normal;font-family:PhattPhreddy;-inkscape-font-specification:PhattPhreddy;letter-spacing:5px;fill:#ffff00;fill-opacity:1"
         d="m 446.66979,419.48327 c 1.22792,-1.96729 1.18553,-5.22755 1.07634,-7.0994 -0.10918,-1.87186 -1.63758,-4.4157 -5.53952,-4.4157 l -1.94965,0 -0.88,0 -0.94752,13.92802 0.64,0 c 3.67298,-0.40705 6.37243,-0.44564 7.60035,-2.41292 z m 12.01222,14.97292 -11.36,0 -3.76,-5.8 -4.2,0 0,5.8 -9.76,0 0,-31.28 11.72,0 c 4.08,0 7.45333,1.10667 10.12,3.32 2.88,2.34667 4.32,5.49333 4.32,9.44 0,3.86667 -1.37333,6.98667 -4.12,9.36 -0.0267,0.0267 -0.08,0.0667 -0.16,0.12 z" />
      <path
         inkscape:connector-curvature="0"
         style="font-style:normal;font-variant:normal;font-weight:normal;font-stretch:normal;font-family:PhattPhreddy;-inkscape-font-specification:PhattPhreddy;letter-spacing:5px;fill:#ffff00;fill-opacity:1"
         d="m 423.2425,434.37619 -23,0 0,-31.52 22.2,0 0,4.8 -10.32,0 0,7.96 10.32,0 0,4.8 -10.32,0 0,9.16 11.12,0 z"
         id="path4364" />
      <path
         inkscape:connector-curvature="0"
         id="path4366"
         style="font-style:normal;font-variant:normal;font-weight:normal;font-stretch:normal;font-family:PhattPhreddy;-inkscape-font-specification:PhattPhreddy;letter-spacing:5px;fill:#ffff00;fill-opacity:1"
         d="m 346.57694,426.33679 -0.38028,-14.85524 c -0.0993,-3.87915 -4.66657,-3.78536 -6.0799,-3.78536 l -3.36,0 0,21.88 3.64,0 c 1.22667,-0.13333 6.26738,0.16677 6.18018,-3.2394 z m 11.01982,-7.7206 c 0,5.17333 -1.58667,9.13333 -4.76,11.88 -2.98667,2.58667 -7.05333,3.88 -12.2,3.88 l -13.76,0 0,-31.52 12.68,0 c 5.46667,0 9.74667,1.21333 12.84,3.64 3.46667,2.72 5.2,6.76 5.2,12.12 z" />
      <path
         d="m 383.67716,426.33679 -0.38028,-14.85524 c -0.0993,-3.87915 -4.66657,-3.78536 -6.0799,-3.78536 l -3.36,0 0,21.88 3.64,0 c 1.22667,-0.13333 6.26738,0.16677 6.18018,-3.2394 z m 11.01982,-7.7206 c 0,5.17333 -1.58667,9.13333 -4.76,11.88 -2.98667,2.58667 -7.05333,3.88 -12.2,3.88 l -13.76,0 0,-31.52 12.68,0 c 5.46667,0 9.74667,1.21333 12.84,3.64 3.46667,2.72 5.2,6.76 5.2,12.12 z"
         style="font-style:normal;font-variant:normal;font-weight:normal;font-stretch:normal;font-family:PhattPhreddy;-inkscape-font-specification:PhattPhreddy;letter-spacing:5px;fill:#ffff00;fill-opacity:1"
         id="path4368"
         inkscape:connector-curvature="0" />
      <path
         sodipodi:nodetypes="ccccccccccccc"
         id="path4371"
         style="font-style:normal;font-variant:normal;font-weight:normal;font-stretch:normal;font-size:40px;line-height:125%;font-family:PhattPhreddy;-inkscape-font-specification:PhattPhreddy;letter-spacing:0px;word-spacing:0px;fill:#ffff00;fill-opacity:1;stroke:none;stroke-width:1px;stroke-linecap:butt;stroke-linejoin:miter;stroke-opacity:1"
         d="m 283.4651,434.68582 -8.64,0 0.45436,-21.29466 -8.56,12.36 -8.84,-12 -0.45436,20.93466 -8.59668,0 0,-31.52 8.55668,0 7.12,9.68 6.68,-9.68 12.28,0 z"
         inkscape:connector-curvature="0" />
      <path
         sodipodi:nodetypes="scscsccsszzccs"
         id="path4373"
         style="font-style:normal;font-variant:normal;font-weight:normal;font-stretch:normal;font-size:40px;line-height:125%;font-family:PhattPhreddy;-inkscape-font-specification:PhattPhreddy;letter-spacing:0px;word-spacing:0px;fill:#ffff00;fill-opacity:1;stroke:none;stroke-width:1px;stroke-linecap:butt;stroke-linejoin:miter;stroke-opacity:1"
         d="m 319.12712,426.55619 c 0,2.93333 -1.61333,5.09333 -4.84,6.48 -2.37333,1.04 -5.21333,1.56 -8.52,1.56 -3.6,0 -6.58667,-0.66667 -8.96,-2 -2.96,-1.65333 -4.44,-4.13333 -4.44,-7.44 l 0,-22.48 8.97636,0 0,23.28 c 0,1.86667 3.01333,2.8 5.04,2.8 0.72,0 2.17505,-0.18038 2.96711,-0.45799 0.79205,-0.27762 2.05245,-0.84768 2.07289,-1.74201 0.0204,-0.89433 0,-23.92 0,-23.92 l 7.70364,0 z"
         inkscape:connector-curvature="0" />
    </g>
    <g
       style="font-style:normal;font-weight:normal;font-size:40px;line-height:125%;font-family:sans-serif;letter-spacing:5px;word-spacing:0px;fill:#ffff00;fill-opacity:1;stroke:none;stroke-width:1px;stroke-linecap:butt;stroke-linejoin:miter;stroke-opacity:1"
       id="g4224"
       transform="matrix(1,0,-0.46630766,1,-1.3360121e-6,-42.43425)">
      <g
         id="g4177">
        <path
           inkscape:connector-curvature="0"
           id="path4184"
           style="font-style:normal;font-variant:normal;font-weight:normal;font-stretch:normal;font-size:medium;line-height:125%;font-family:PhattPhreddy;-inkscape-font-specification:PhattPhreddy;letter-spacing:0px;word-spacing:0px;fill:#ffff00;fill-opacity:1;stroke:none;stroke-width:1px;stroke-linecap:butt;stroke-linejoin:miter;stroke-opacity:1"
           d="m 512.35811,359.461 c 0,3.97333 -1.45333,7.14667 -4.36,9.52 -2.69333,2.21333 -12.09333,3.32 -16.2,3.32 l -2,0 0,5.84 -9.84,0 0,-31.52 11.84,0 c 4.08,-0.0533 13.48,1.04 16.2,3.28 2.90667,2.4 4.36,5.58667 4.36,9.56 z m -12.28691,5.88325 c 2.21993,-1.83451 3.91983,-6.17984 1.62735,-10.26622 -2.29248,-4.08638 -9.39404,-3.52046 -11.02044,-3.61703 l -0.88,0 0,16.04 0.68,0 c 2.48,0 7.37316,-0.32224 9.59309,-2.15675 z"
           sodipodi:nodetypes="scsccccccszzcccsz" />
        <path
           inkscape:connector-curvature="0"
           id="path4192"
           style="font-style:normal;font-variant:normal;font-weight:normal;font-stretch:normal;font-size:medium;line-height:125%;font-family:PhattPhreddy;-inkscape-font-specification:PhattPhreddy;letter-spacing:0px;word-spacing:0px;fill:#ffff00;fill-opacity:1;stroke:none;stroke-width:1px;stroke-linecap:butt;stroke-linejoin:miter;stroke-opacity:1"
           d="m 652.29247,373.86007 c -3.54667,3.12 -7.77333,4.68 -12.68,4.68 -4.90667,0 -9.13333,-1.56 -12.68,-4.68 -3.54667,-3.12 -5.32,-6.94667 -5.32,-11.48 0,-4.53333 1.77333,-8.36 5.32,-11.48 3.54667,-3.12 7.77333,-4.68 12.68,-4.68 4.90667,0 9.13333,1.56 12.68,4.68 3.54667,3.12 5.32,6.94667 5.32,11.48 0,4.50667 -1.77333,8.33333 -5.32,11.48 z m -9.27283,-2.16 0,-18.56 c 0,-1.38667 -2.0205,-2.08 -3.40717,-2.08 -1.38667,0 -3.86879,0.69333 -3.86879,2.08 l 0,18.56 c 0,0.64 0.2,1.14667 0.6,1.52 0.42666,0.34667 2.70879,0.52 3.26879,0.52 1.38667,0 3.40717,-0.68 3.40717,-2.04 z"
           sodipodi:nodetypes="cssssssscssssscss" />
        <path
           inkscape:connector-curvature="0"
           id="path4357-9"
           d="m 542.48385,378.14007 -23,0 0,-31.52 22.2,0 0,4.8 -10.32,0 0,7.96 10.32,0 -10e-6,4.8 -10.31999,0 0,9.16 11.12,0 z"
           style="font-style:normal;font-variant:normal;font-weight:normal;font-stretch:normal;font-size:40px;line-height:125%;font-family:PhattPhreddy;-inkscape-font-specification:PhattPhreddy;letter-spacing:5px;word-spacing:0px;fill:#ffff00;fill-opacity:1;stroke:none;stroke-width:1px;stroke-linecap:butt;stroke-linejoin:miter;stroke-opacity:1" />
        <path
           inkscape:connector-curvature="0"
           d="m 605.14186,370.10067 -0.38028,-14.85524 c -0.0993,-3.87915 -4.66657,-3.78536 -6.0799,-3.78536 l -3.36,0 0,21.88 3.64,0 c 1.22667,-0.13333 6.26738,0.16677 6.18018,-3.2394 z m 11.01982,-7.7206 c 0,5.17333 -1.58667,9.13333 -4.76,11.88 -2.98667,2.58667 -7.05333,3.88 -12.2,3.88 l -13.76,0 0,-31.52 12.68,0 c 5.46667,0 9.74667,1.21333 12.84,3.64 3.46667,2.72 5.2,6.76 5.2,12.12 z"
           style="font-style:normal;font-variant:normal;font-weight:normal;font-stretch:normal;font-size:40px;line-height:125%;font-family:PhattPhreddy;-inkscape-font-specification:PhattPhreddy;letter-spacing:5px;word-spacing:0px;fill:#ffff00;fill-opacity:1;stroke:none;stroke-width:1px;stroke-linecap:butt;stroke-linejoin:miter;stroke-opacity:1"
           id="path4351-7" />
        <path
           style="font-style:normal;font-variant:normal;font-weight:normal;font-stretch:normal;font-size:40px;line-height:125%;font-family:PhattPhreddy;-inkscape-font-specification:PhattPhreddy;letter-spacing:5px;word-spacing:0px;fill:#ffff00;fill-opacity:1;stroke:none;stroke-width:1px;stroke-linecap:butt;stroke-linejoin:miter;stroke-opacity:1"
           d="m 575.93551,378.14007 -23,0 0,-31.52 22.2,0 0,4.8 -10.32,0 0,7.96 10.32,0 -10e-6,4.8 -10.31999,0 0,9.16 11.12,0 z"
           id="path4218"
           inkscape:connector-curvature="0" />
        <text
           xml:space="preserve"
           style="font-style:normal;font-weight:normal;font-size:40.17064285px;line-height:125%;font-family:sans-serif;letter-spacing:0px;word-spacing:0px;fill:#ffff00;fill-opacity:1;stroke:#ffff00;stroke-width:3;stroke-linecap:butt;stroke-linejoin:miter;stroke-miterlimit:4;stroke-dasharray:none;stroke-opacity:1"
           x="353.43094"
           y="375.40417"
           id="text4220"
           sodipodi:linespacing="125%"
           transform="matrix(0.99558865,0,0.25853834,1.0044309,0,0)"><tspan
             sodipodi:role="line"
             id="tspan4222"
             x="353.43094"
             y="375.40417"
             style="font-style:italic;font-variant:normal;font-weight:normal;font-stretch:normal;font-family:sans-serif;-inkscape-font-specification:'sans-serif Italic';fill:#ffff00;fill-opacity:1;stroke:#ffff00;stroke-width:3;stroke-miterlimit:4;stroke-dasharray:none;stroke-opacity:1">S</tspan></text>
      </g>
    </g>
  </g>
</svg>
