<?xml version="1.0" encoding="UTF-8" standalone="no"?>
<!-- Created with Inkscape (http://www.inkscape.org/) -->

<svg
   xmlns:dc="http://purl.org/dc/elements/1.1/"
   xmlns:cc="http://creativecommons.org/ns#"
   xmlns:rdf="http://www.w3.org/1999/02/22-rdf-syntax-ns#"
   xmlns:svg="http://www.w3.org/2000/svg"
   xmlns="http://www.w3.org/2000/svg"
   xmlns:sodipodi="http://sodipodi.sourceforge.net/DTD/sodipodi-0.dtd"
   xmlns:inkscape="http://www.inkscape.org/namespaces/inkscape"
   width="210mm"
   height="297mm"
   viewBox="0 0 210 297"
   version="1.1"
   id="svg11584"
   inkscape:version="0.91+devel r"
   sodipodi:docname="shadow.svg">
  <defs
     id="defs11578" />
  <sodipodi:namedview
     id="base"
     pagecolor="#ffffff"
     bordercolor="#666666"
     borderopacity="1.0"
     inkscape:pageopacity="0.0"
     inkscape:pageshadow="2"
     inkscape:zoom="0.68359375"
     inkscape:cx="384.53261"
     inkscape:cy="535.11315"
     inkscape:document-units="mm"
     inkscape:current-layer="layer1"
     showgrid="false"
     showguides="true"
     inkscape:guide-bbox="true"
     inkscape:window-width="1600"
     inkscape:window-height="876"
     inkscape:window-x="0"
     inkscape:window-y="24"
     inkscape:window-maximized="1" />
  <metadata
     id="metadata11581">
    <rdf:RDF>
      <cc:Work
         rdf:about="">
        <dc:format>image/svg+xml</dc:format>
        <dc:type
           rdf:resource="http://purl.org/dc/dcmitype/StillImage" />
        <dc:title />
      </cc:Work>
    </rdf:RDF>
  </metadata>
  <g
     inkscape:label="Ebene 1"
     inkscape:groupmode="layer"
     id="layer1">
    <path
       style="font-style:normal;font-variant:normal;font-weight:normal;font-stretch:normal;font-size:58.667099px;line-height:125%;font-family:'Carbon Block';-inkscape-font-specification:'Carbon Block, Normal';font-variant-ligatures:normal;font-variant-caps:normal;font-variant-numeric:normal;font-feature-settings:normal;text-align:start;letter-spacing:0px;word-spacing:0px;writing-mode:lr-tb;text-anchor:start;fill:#000000;fill-opacity:1;stroke:none;stroke-width:1.49899447px;stroke-linecap:butt;stroke-linejoin:miter;stroke-opacity:1"
       d="m 16.475996,154.97297 -1.877405,1.28313 c -7.6209225,5.20809 -7.3610588,7.81193 0.779281,7.81193 8.006893,0 14.953566,-2.01146 20.840072,-6.03426 l 4.478795,-3.0608 h -8.941057 l -3.611665,2.46807 c -2.627911,1.7959 -4.964734,2.69389 -7.010941,2.69389 -1.77931,0 -1.723114,-0.64636 0.168982,-1.93941 l 4.715474,-3.22255 z m 27.831376,0 -12.047328,8.23309 h 9.274371 l 12.047326,-8.23309 z m 14.545882,0 -12.047326,8.23309 h 9.274368 l 12.047326,-8.23309 z m 12.885002,0 -11.968779,8.17935 h 9.341548 l 11.968263,-8.17935 z m 14.812531,0 -11.968261,8.17935 h 9.274368 l 11.968779,-8.17935 z m 12.881901,0 -12.047326,8.23309 h 11.676806 c 8.273732,0 16.011022,-2.46017 23.211502,-7.38094 l 1.24695,-0.85215 h -9.34207 l -3.45405,2.36058 c -1.9972,1.36487 -4.39666,2.04743 -7.19905,2.04743 h -1.26813 l 6.45025,-4.40801 z m 27.363702,0 -4.24212,2.89905 c -3.04839,2.08325 -3.96752,3.69996 -2.75797,4.84932 0.86568,0.89795 2.7888,1.34669 5.76915,1.34669 2.98035,0 6.21691,-0.44874 9.71052,-1.34669 4.47618,-1.11345 8.26478,-2.73016 11.36572,-4.84932 l 4.24211,-2.89905 h -9.27436 l -4.4788,3.0608 c -1.94466,1.32896 -3.82857,1.99367 -5.65237,1.99367 -1.82379,0 -1.76379,-0.66471 0.18087,-1.99367 l 4.4788,-3.0608 z m 27.56472,0 -4.00596,2.73782 c -3.04836,2.08323 -4.03835,3.71726 -2.97036,4.90254 0.89403,0.96979 2.71977,1.4547 5.47771,1.4547 3.11378,0 6.5165,-0.5929 10.20816,-1.77819 0.40075,1.18529 2.13605,1.77819 5.20537,1.77819 2.8024,0 6.02544,-0.48491 9.66866,-1.4547 4.44785,-1.18528 8.19591,-2.81931 11.24427,-4.90254 l 4.00596,-2.73782 h -9.27437 l -4.3217,2.95331 c -1.94464,1.32896 -3.85127,1.99316 -5.71955,1.99316 -1.7793,0 -1.59162,-0.73602 0.56327,-2.20865 l 4.00596,-2.73782 h -9.34103 l -4.71548,3.22255 c -0.73581,0.50285 -1.62968,0.91595 -2.68097,1.2392 -1.05129,0.32326 -1.8882,0.48472 -2.51096,0.48472 -1.82379,0 -1.76325,-0.6642 0.18139,-1.99316 l 4.3217,-2.95331 z"
       id="path12171"
       inkscape:connector-curvature="0" />
    <path
       style="font-style:normal;font-variant:normal;font-weight:normal;font-stretch:normal;font-size:58.667099px;line-height:125%;font-family:'Carbon Block';-inkscape-font-specification:'Carbon Block, Normal';font-variant-ligatures:normal;font-variant-caps:normal;font-variant-numeric:normal;font-feature-settings:normal;text-align:start;letter-spacing:0px;word-spacing:0px;writing-mode:lr-tb;text-anchor:start;fill:#000000;fill-opacity:1;stroke:none;stroke-width:6.30489254px;stroke-linecap:butt;stroke-linejoin:miter;stroke-opacity:1"
       d="M 109.04297 483.46094 C 79.116934 483.46094 64.154297 492.79137 64.154297 511.45312 L 64.154297 529.10547 C 64.154297 537.51167 68.94624 546.08765 78.529297 554.83008 L 105.25977 575.75977 C 107.63358 577.6666 109.72057 579.499 111.54492 581.26172 L 152.07617 581.26172 C 149.7686 576.55074 145.77333 571.69115 140.0625 566.68164 L 113.33008 546.00195 C 103.41077 537.59575 98.451172 529.02172 98.451172 520.2793 L 98.451172 511.70508 C 98.451172 504.47575 101.98177 500.86133 109.04297 500.86133 C 117.11291 500.86133 121.14844 507.41761 121.14844 520.53125 L 121.14844 537.17578 L 155.44531 537.17578 L 155.44531 519.27148 C 155.44531 505.48536 151.07447 495.81761 142.33203 490.26953 C 135.27083 485.73017 124.17411 483.46094 109.04297 483.46094 z M 317.4043 483.46094 C 306.30812 483.46094 296.47275 485.47872 287.89844 489.51367 C 277.13852 494.72549 271.75781 502.28969 271.75781 512.20898 L 271.75781 581.26172 L 307.06445 581.26172 L 307.06445 572.2207 L 327.74414 572.2207 L 327.74414 581.26172 L 362.79688 581.26172 L 362.79688 512.20898 C 362.79687 502.28969 357.41812 494.72549 346.6582 489.51367 C 338.08389 485.47872 328.33234 483.46094 317.4043 483.46094 z M 525.5 483.46094 C 514.23569 483.46094 504.4841 485.47872 496.24609 489.51367 C 485.31801 494.89364 479.85547 502.4578 479.85547 512.20898 L 479.85547 581.26172 L 515.16016 581.26172 L 515.16016 510.44531 C 515.16016 504.39285 518.60694 501.36523 525.5 501.36523 C 532.3931 501.36523 535.83984 504.39285 535.83984 510.44531 L 535.83984 581.26172 L 570.89453 581.26172 L 570.89453 512.20898 C 570.89453 502.28969 565.51381 494.72549 554.75391 489.51367 C 546.17959 485.47872 536.42805 483.46094 525.5 483.46094 z M 168.08203 487.74805 L 168.08203 581.26172 L 203.13672 581.26172 L 203.13672 572.37305 L 223.05859 572.37305 L 223.05859 581.26172 L 258.11328 581.26172 L 258.11328 487.74805 L 223.05859 487.74805 L 223.05859 551.94727 L 203.13672 551.94727 L 203.13672 487.74805 L 168.08203 487.74805 z M 376.43164 487.74805 L 376.43164 581.26172 L 411.48438 581.26172 L 411.48438 504.89648 L 416.27734 504.89648 C 426.86913 504.89648 432.16406 508.08983 432.16406 514.47852 L 432.16406 581.26172 L 467.4707 581.26172 L 467.4707 522.54883 C 467.4707 499.34774 451.91931 487.74805 420.81641 487.74805 L 376.43164 487.74805 z M 584.03516 487.74805 L 584.03516 581.26172 L 619.3418 581.26172 L 619.3418 487.74805 L 584.03516 487.74805 z M 639.76758 487.74805 L 639.76758 581.26172 L 675.07422 581.26172 L 675.07422 487.74805 L 639.76758 487.74805 z M 695.75391 487.74805 L 695.75391 581.26172 L 730.80664 581.26172 L 730.80664 487.74805 L 695.75391 487.74805 z M 317.4043 502.12305 C 324.29737 502.12305 327.74414 505.23255 327.74414 511.45312 L 327.74414 553.05469 L 307.06445 553.05469 L 307.06445 511.45312 C 307.06445 505.23255 310.51122 502.12305 317.4043 502.12305 z "
       transform="scale(0.26458333)"
       id="path12159" />
    <path
       id="path11306"
       style="font-style:normal;font-variant:normal;font-weight:normal;font-stretch:normal;font-size:medium;line-height:125%;font-family:'Humanst521 BT';-inkscape-font-specification:'Humanst521 BT';letter-spacing:0px;word-spacing:0px;fill:#000000;fill-opacity:1;stroke:none;stroke-width:0.26458332px;stroke-linecap:butt;stroke-linejoin:miter;stroke-opacity:1"
       d="m 112.99225,124.49014 v -3.61735 l -2.79053,-3.61218 h 1.22473 l 2.1084,2.74402 2.16008,-2.74402 h 1.2454 l -2.89905,3.66386 v 3.56567 z m -9.51364,-3.18327 v 2.24276 h 1.3746 q 0.75447,0 1.10071,-0.26355 0.3514,-0.26872 0.3514,-0.83716 0,-0.58911 -0.39275,-0.86299 -0.38757,-0.27906 -1.22473,-0.27906 z m -1.02319,3.18327 v -7.22953 h 2.11357 q 1.08003,0 1.66398,0.49093 0.58911,0.49092 0.58911,1.39526 0,0.55811 -0.26355,0.93018 -0.26355,0.37207 -0.80615,0.5736 0.79065,0.18604 1.21956,0.67697 0.43408,0.49092 0.43408,1.19372 0,0.89917 -0.66145,1.43661 -0.6563,0.53226 -1.78284,0.53226 z m 1.02319,-4.12894 h 0.69764 q 0.79065,0 1.17305,-0.28422 0.38241,-0.28422 0.38241,-0.86817 0,-0.53227 -0.30489,-0.77514 -0.29973,-0.24288 -0.96119,-0.24288 h -0.98702 z m -17.249587,4.12894 v -7.22953 h 0.89917 l 4.759399,5.61206 v -5.61206 h 1.028361 v 7.22953 h -0.91984 l -4.743897,-5.61723 v 5.61723 z m -8.433594,0 v -7.22953 h 4.345988 v 0.91984 h -3.322794 v 2.19108 h 3.229776 v 0.93534 h -3.229776 v 2.2531 h 3.431315 v 0.93017 z m -6.754111,0.0517 -3.183268,-7.28121 h 1.080037 l 2.253093,5.15731 2.299601,-5.15731 h 1.064534 l -3.245279,7.28121 z m -7.477578,-0.0517 v -7.22953 h 1.033528 v 7.22953 z m -8.686809,0 v -7.22953 h 2.118734 q 1.09554,0 1.689819,0.51676 0.594279,0.51677 0.594279,1.46245 0,0.71313 -0.325561,1.14721 -0.325562,0.43409 -1.028361,0.65113 0.180867,0.0982 0.341064,0.26355 0.160197,0.16019 0.413411,0.5426 l 1.756999,2.64583 h -1.25057 l -1.240234,-1.89652 q -0.558105,-0.85783 -0.904337,-1.09554 -0.341065,-0.23771 -0.816488,-0.23771 h -0.310059 v 3.22977 z m 1.038696,-4.09794 h 0.857829 q 0.72347,0 1.080038,-0.27905 0.361735,-0.27905 0.361735,-0.85266 0,-0.58911 -0.341065,-0.85266 -0.341064,-0.26872 -1.100708,-0.26872 h -0.857829 z m -8.888346,-2.14457 h -1.632975 v 5.26066 h 1.632975 q 1.33842,0 2.103231,-0.7028 0.764811,-0.7028 0.764811,-1.92236 0,-1.22473 -0.764811,-1.92753 -0.764811,-0.70797 -2.103231,-0.70797 z m 0,-0.98702 q 0.800985,0 1.374593,0.14986 0.578776,0.14986 1.059367,0.47542 0.733806,0.4961 1.131714,1.27641 0.403076,0.77515 0.403076,1.71049 0,0.93535 -0.403076,1.72083 -0.403076,0.78031 -1.131714,1.27124 -0.470255,0.32556 -1.054199,0.47542 -0.583944,0.14986 -1.379761,0.14986 h -2.656168 v -7.22953 z" />
  </g>
</svg>
